<svg width="619" height="385" viewBox="0 0 619 385" fill="none" xmlns="http://www.w3.org/2000/svg">
<circle cx="336.5" cy="192.5" r="191.5" stroke="black" stroke-width="2" stroke-linecap="round" stroke-linejoin="round" stroke-dasharray="12 12"/>
<g filter="url(#filter0_b_1287_6873)">
<path d="M618.5 51.68C618.5 32.5268 602.973 17 583.82 17H481C465.536 17 453 29.536 453 45V78.36C453 82.7783 456.582 86.36 461 86.36H583.82C602.973 86.36 618.5 70.8332 618.5 51.68V51.68Z" fill="black"/>
<path d="M583.82 17.5H481C465.812 17.5 453.5 29.8122 453.5 45V78.36C453.5 82.5022 456.858 85.86 461 85.86H583.82C602.697 85.86 618 70.5571 618 51.68C618 32.8029 602.697 17.5 583.82 17.5Z" stroke="#F8F6F5"/>
</g>
<circle cx="500" cy="52" r="9" fill="#F8F6F5"/>
<circle cx="536" cy="52" r="9" fill="#F8F6F5"/>
<circle cx="572" cy="52" r="9" fill="#F8F6F5"/>
<rect y="266" width="302" height="79" rx="20" fill="white"/>
<path d="M38.5979 285.854C39.1966 284.011 41.8034 284.011 42.4021 285.854L45.7761 296.238C46.0438 297.062 46.8117 297.62 47.6782 297.62L58.5966 297.62C60.534 297.62 61.3396 300.099 59.7721 301.238L50.939 307.656C50.238 308.165 49.9447 309.068 50.2124 309.892L53.5864 320.276C54.1851 322.118 52.0762 323.651 50.5087 322.512L41.6756 316.094C40.9746 315.585 40.0254 315.585 39.3244 316.094L30.4913 322.512C28.9238 323.651 26.8149 322.118 27.4136 320.276L30.7876 309.892C31.0553 309.068 30.762 308.165 30.061 307.656L21.2279 301.238C19.6604 300.099 20.466 297.62 22.4034 297.62L33.3218 297.62C34.1883 297.62 34.9562 297.062 35.2239 296.238L38.5979 285.854Z" fill="black"/>
<path d="M93.5979 285.854C94.1966 284.011 96.8034 284.011 97.4021 285.854L100.776 296.238C101.044 297.062 101.812 297.62 102.678 297.62L113.597 297.62C115.534 297.62 116.34 300.099 114.772 301.238L105.939 307.656C105.238 308.165 104.945 309.068 105.212 309.892L108.586 320.276C109.185 322.118 107.076 323.651 105.509 322.512L96.6756 316.094C95.9746 315.585 95.0254 315.585 94.3244 316.094L85.4913 322.512C83.9238 323.651 81.8149 322.118 82.4136 320.276L85.7876 309.892C86.0553 309.068 85.762 308.165 85.061 307.656L76.2279 301.238C74.6604 300.099 75.466 297.62 77.4034 297.62L88.3218 297.62C89.1883 297.62 89.9562 297.062 90.2239 296.238L93.5979 285.854Z" fill="black"/>
<path d="M149.101 285.731C149.707 283.903 152.293 283.903 152.899 285.731L156.383 296.249C156.654 297.067 157.419 297.62 158.282 297.62L169.474 297.62C171.421 297.62 172.22 300.119 170.635 301.249L161.647 307.653C160.933 308.163 160.633 309.078 160.909 309.911L164.358 320.321C164.966 322.157 162.874 323.701 161.299 322.579L152.161 316.067C151.466 315.572 150.534 315.572 149.839 316.067L140.701 322.579C139.126 323.701 137.034 322.157 137.642 320.321L141.091 309.911C141.367 309.078 141.067 308.163 140.353 307.653L131.365 301.249C129.78 300.119 130.579 297.62 132.526 297.62L143.718 297.62C144.581 297.62 145.346 297.067 145.617 296.249L149.101 285.731Z" fill="black"/>
<path d="M204.598 285.854C205.197 284.011 207.803 284.011 208.402 285.854L211.776 296.238C212.044 297.062 212.812 297.62 213.678 297.62L224.597 297.62C226.534 297.62 227.34 300.099 225.772 301.238L216.939 307.656C216.238 308.165 215.945 309.068 216.212 309.892L219.586 320.276C220.185 322.118 218.076 323.651 216.509 322.512L207.676 316.094C206.975 315.585 206.025 315.585 205.324 316.094L196.491 322.512C194.924 323.651 192.815 322.118 193.414 320.276L196.788 309.892C197.055 309.068 196.762 308.165 196.061 307.656L187.228 301.238C185.66 300.099 186.466 297.62 188.403 297.62L199.322 297.62C200.188 297.62 200.956 297.062 201.224 296.238L204.598 285.854Z" fill="black"/>
<path d="M259.598 285.854C260.197 284.011 262.803 284.011 263.402 285.854L266.776 296.238C267.044 297.062 267.812 297.62 268.678 297.62L279.597 297.62C281.534 297.62 282.34 300.099 280.772 301.238L271.939 307.656C271.238 308.165 270.945 309.068 271.212 309.892L274.586 320.276C275.185 322.118 273.076 323.651 271.509 322.512L262.676 316.094C261.975 315.585 261.025 315.585 260.324 316.094L251.491 322.512C249.924 323.651 247.815 322.118 248.414 320.276L251.788 309.892C252.055 309.068 251.762 308.165 251.061 307.656L242.228 301.238C240.66 300.099 241.466 297.62 243.403 297.62L254.322 297.62C255.188 297.62 255.956 297.062 256.224 296.238L259.598 285.854Z" fill="black"/>
<path d="M70.6746 152.676C68.249 154.077 65.1475 153.246 63.7471 150.82L52.8799 131.998C51.4795 129.572 52.3106 126.471 54.7362 125.07C57.1617 123.67 60.2633 124.501 61.6637 126.926L72.5308 145.749C73.9313 148.174 73.1002 151.276 70.6746 152.676Z" fill="black"/>
<path d="M35.0405 121.382C33.44 118.61 34.3898 115.065 37.1619 113.465L61.0036 99.6996C63.7757 98.0991 67.3204 99.0489 68.9208 101.821L74.7166 111.86C76.3171 114.632 75.3673 118.176 72.5952 119.777L48.7535 133.542C45.9814 135.142 42.4367 134.193 40.8363 131.42L35.0405 121.382Z" fill="#272525"/>
<path d="M105.661 119.091L78.1308 71.4071L61.4251 99.4566L73.0166 119.534L105.661 119.091Z" fill="#272525"/>
<path d="M80.2785 69.3306C79.2782 67.5981 79.8718 65.3827 81.6044 64.3824C83.3369 63.3821 85.5523 63.9757 86.5526 65.7083L114.807 114.647C115.807 116.379 115.214 118.595 113.481 119.595C111.749 120.595 109.533 120.001 108.533 118.269L80.2785 69.3306Z" fill="#272525"/>
<path fill-rule="evenodd" clip-rule="evenodd" d="M78.6616 69.4277C79.3546 69.0276 80.2408 69.265 80.6409 69.958L108.171 117.642C108.571 118.335 108.334 119.221 107.641 119.621C106.948 120.021 106.061 119.783 105.661 119.09L78.1312 71.407C77.7311 70.714 77.9685 69.8278 78.6616 69.4277Z" fill="black"/>
<path fill-rule="evenodd" clip-rule="evenodd" d="M61.0039 99.6996C61.6969 99.2995 62.583 99.537 62.9832 100.23L73.1258 117.798C73.5259 118.491 73.2885 119.377 72.5955 119.777C71.9024 120.177 71.0163 119.94 70.6162 119.247L60.4735 101.679C60.0734 100.986 60.3108 100.1 61.0039 99.6996Z" fill="black"/>
<path fill-rule="evenodd" clip-rule="evenodd" d="M98.5065 78.5373C98.7136 77.7644 99.5082 77.3057 100.281 77.5128C109.17 79.8946 114.445 89.0315 112.064 97.9206C111.856 98.6936 111.062 99.1523 110.289 98.9452C109.516 98.7381 109.057 97.9436 109.264 97.1706C111.232 89.8274 106.874 82.2795 99.5311 80.3119C98.7581 80.1048 98.2994 79.3103 98.5065 78.5373Z" fill="black"/>
<path fill-rule="evenodd" clip-rule="evenodd" d="M99.5982 70.5043C99.8053 69.7313 100.6 69.2726 101.373 69.4797C115.099 73.1575 123.244 87.2659 119.566 100.992C119.359 101.765 118.565 102.223 117.792 102.016C117.019 101.809 116.56 101.015 116.767 100.242C120.031 88.0618 112.803 75.5425 100.623 72.2789C99.8498 72.0718 99.3911 71.2773 99.5982 70.5043Z" fill="black"/>
<defs>
<filter id="filter0_b_1287_6873" x="438" y="2" width="195.5" height="99.36" filterUnits="userSpaceOnUse" color-interpolation-filters="sRGB">
<feFlood flood-opacity="0" result="BackgroundImageFix"/>
<feGaussianBlur in="BackgroundImageFix" stdDeviation="7.5"/>
<feComposite in2="SourceAlpha" operator="in" result="effect1_backgroundBlur_1287_6873"/>
<feBlend mode="normal" in="SourceGraphic" in2="effect1_backgroundBlur_1287_6873" result="shape"/>
</filter>
</defs>
</svg>
