<svg width="508" height="554" viewBox="0 0 508 554" fill="none" xmlns="http://www.w3.org/2000/svg">
<circle cx="315.5" cy="282.5" r="191.5" stroke="black" stroke-width="2" stroke-linecap="round" stroke-linejoin="round" stroke-dasharray="12 12"/>
<path fill-rule="evenodd" clip-rule="evenodd" d="M131 139.5L130.999 143.15L130.996 144.662L130.992 145.821L130.985 146.799L130.977 147.66L130.967 148.438L130.955 149.153L130.942 149.818L130.926 150.443L130.909 151.033L130.89 151.593L130.869 152.129L130.846 152.642L130.821 153.135L130.794 153.61L130.766 154.069L130.736 154.513L130.704 154.944L130.67 155.362L130.634 155.769L130.597 156.165L130.557 156.551L130.516 156.928L130.473 157.295L130.428 157.655L130.381 158.007L130.333 158.351L130.282 158.688L130.23 159.018L130.176 159.342L130.119 159.66L130.061 159.971L130.002 160.278L129.94 160.578L129.876 160.873L129.811 161.164L129.743 161.449L129.674 161.73L129.603 162.006L129.53 162.277L129.455 162.544L129.378 162.807L129.299 163.066L129.218 163.321L129.136 163.572L129.051 163.82L128.964 164.063L128.876 164.303L128.785 164.54L128.693 164.773L128.599 165.002L128.502 165.229L128.404 165.452L128.304 165.672L128.201 165.888L128.097 166.102L127.991 166.313L127.882 166.52L127.772 166.725L127.66 166.927L127.545 167.126L127.429 167.322L127.31 167.516L127.189 167.707L127.067 167.895L126.942 168.08L126.815 168.263L126.686 168.443L126.555 168.621L126.421 168.796L126.286 168.969L126.148 169.139L126.008 169.307L125.866 169.472L125.722 169.635L125.575 169.795L125.426 169.954L125.275 170.11L125.122 170.263L124.966 170.414L124.808 170.563L124.648 170.71L124.485 170.855L124.32 170.997L124.152 171.137L123.982 171.275L123.81 171.41L123.635 171.544L123.457 171.675L123.277 171.805L123.095 171.932L122.91 172.057L122.722 172.18L122.531 172.3L122.338 172.419L122.142 172.536L121.943 172.65L121.741 172.763L121.537 172.874L121.329 172.982L121.119 173.089L120.906 173.193L120.689 173.296L120.469 173.396L120.247 173.494L120.021 173.591L119.791 173.686L119.558 173.778L119.322 173.869L119.083 173.957L118.839 174.044L118.592 174.129L118.342 174.212L118.087 174.293L117.828 174.372L117.566 174.449L117.299 174.524L117.027 174.597L116.752 174.668L116.472 174.738L116.187 174.805L115.897 174.871L115.602 174.935L115.302 174.997L114.996 175.057L114.685 175.115L114.368 175.171L114.044 175.226L113.714 175.278L113.378 175.329L113.034 175.378L112.683 175.425L112.324 175.47L111.957 175.513L111.581 175.554L111.196 175.594L110.801 175.631L110.395 175.667L109.978 175.701L109.548 175.733L109.105 175.764L108.647 175.792L108.173 175.819L107.682 175.844L107.17 175.867L106.637 175.888L106.078 175.907L105.491 175.925L104.869 175.94L104.208 175.954L103.497 175.966L102.725 175.976L101.871 175.985L100.905 175.991L99.7634 175.996L98.2925 175.999L95.53 176L90.9984 175.999L89.4421 175.997L88.2629 175.992L87.2739 175.986L86.4052 175.978L85.6215 175.968L84.9019 175.956L84.2331 175.943L83.6058 175.927L83.0131 175.91L82.4502 175.891L81.913 175.87L81.3983 175.848L80.9038 175.823L80.4273 175.797L79.9671 175.768L79.5217 175.738L79.09 175.707L78.6707 175.673L78.2631 175.637L77.8662 175.6L77.4794 175.561L77.102 175.52L76.7335 175.477L76.3733 175.432L76.0211 175.385L75.6763 175.337L75.3387 175.286L75.0079 175.234L74.6835 175.18L74.3653 175.124L74.0531 175.066L73.7466 175.006L73.4456 174.945L73.1498 174.881L72.8592 174.816L72.5734 174.749L72.2925 174.68L72.0161 174.609L71.7442 174.536L71.4766 174.461L71.2133 174.384L70.954 174.305L70.6988 174.225L70.4474 174.142L70.1998 174.058L69.9559 173.971L69.7156 173.883L69.4789 173.793L69.2456 173.7L69.0157 173.606L68.7891 173.51L68.5658 173.412L68.3457 173.312L68.1287 173.209L67.9148 173.105L67.7039 172.999L67.496 172.891L67.291 172.781L67.0889 172.669L66.8896 172.554L66.6931 172.438L66.4994 172.319L66.3084 172.199L66.1201 172.076L65.9345 171.952L65.7515 171.825L65.571 171.696L65.3931 171.565L65.2178 171.432L65.0449 171.297L64.8745 171.159L64.7066 171.019L64.5411 170.877L64.3779 170.733L64.2172 170.587L64.0588 170.438L63.9028 170.287L63.749 170.134L63.5976 169.979L63.4484 169.821L63.3015 169.661L63.1568 169.498L63.0144 169.333L62.8742 169.166L62.7361 168.996L62.6002 168.824L62.4665 168.649L62.335 168.472L62.2056 168.292L62.0783 168.109L61.9531 167.924L61.8301 167.737L61.7091 167.546L61.5902 167.353L61.4733 167.158L61.3586 166.959L61.2458 166.758L61.1351 166.553L61.0265 166.346L60.9198 166.136L60.8152 165.923L60.7126 165.706L60.6119 165.487L60.5133 165.264L60.4166 165.039L60.3219 164.81L60.2292 164.577L60.1384 164.341L60.0496 164.102L59.9627 163.859L59.8778 163.612L59.7948 163.362L59.7137 163.107L59.6346 162.849L59.5574 162.587L59.482 162.32L59.4086 162.049L59.3371 161.774L59.2675 161.494L59.1998 161.209L59.134 160.92L59.0701 160.626L59.0081 160.326L58.9479 160.021L58.8896 159.71L58.8332 159.393L58.7787 159.07L58.726 158.741L58.6752 158.405L58.6262 158.062L58.5791 157.712L58.5339 157.353L58.4905 156.987L58.449 156.612L58.4093 156.227L58.3714 155.833L58.3355 155.428L58.3013 155.011L58.269 154.583L58.2385 154.141L58.2099 153.684L58.1831 153.212L58.1581 152.722L58.135 152.212L58.1137 151.68L58.0942 151.124L58.0766 150.539L58.0607 149.92L58.0468 149.262L58.0346 148.556L58.0243 147.789L58.0158 146.943L58.0091 145.987L58.0042 144.863L58.0012 143.43L58 140.957L58.0006 136.153L58.0031 134.548L58.0073 133.349L58.0134 132.348L58.0214 131.471L58.0311 130.681L58.0427 129.957L58.0561 129.285L58.0713 128.654L58.0884 128.059L58.1073 127.494L58.128 126.955L58.1505 126.439L58.1749 125.942L58.2011 125.465L58.2292 125.003L58.2591 124.557L58.2908 124.124L58.3244 123.704L58.3598 123.295L58.397 122.897L58.4361 122.51L58.4771 122.132L58.5199 121.762L58.5645 121.402L58.611 121.049L58.6594 120.703L58.7096 120.365L58.7617 120.034L58.8156 119.709L58.8714 119.39L58.9291 119.078L58.9887 118.771L59.0501 118.469L59.1135 118.173L59.1787 117.882L59.2458 117.596L59.3148 117.315L59.3857 117.038L59.4585 116.766L59.5332 116.498L59.6098 116.234L59.6883 115.975L59.7688 115.719L59.8511 115.467L59.9355 115.219L60.0217 114.975L60.1099 114.735L60.2 114.498L60.2922 114.264L60.3862 114.034L60.4823 113.807L60.5803 113.583L60.6803 113.363L60.7823 113.146L60.8863 112.932L60.9923 112.721L61.1003 112.512L61.2103 112.307L61.3224 112.105L61.4366 111.905L61.5527 111.709L61.671 111.515L61.7913 111.324L61.9137 111.135L62.0382 110.949L62.1648 110.766L62.2935 110.585L62.4244 110.407L62.5574 110.232L62.6926 110.059L62.8299 109.888L62.9695 109.72L63.1112 109.554L63.2552 109.391L63.4014 109.23L63.5498 109.071L63.7005 108.915L63.8535 108.761L64.0089 108.61L64.1665 108.46L64.3265 108.313L64.4888 108.168L64.6536 108.026L64.8208 107.885L64.9904 107.747L65.1624 107.611L65.337 107.477L65.5141 107.345L65.6937 107.216L65.8759 107.088L66.0607 106.963L66.2482 106.84L66.4383 106.719L66.6311 106.6L66.8267 106.483L67.0251 106.368L67.2263 106.255L67.4303 106.144L67.6373 106.035L67.8473 105.928L68.0602 105.823L68.2762 105.721L68.4953 105.62L68.7176 105.521L68.9432 105.424L69.172 105.329L69.4042 105.236L69.6398 105.146L69.879 105.057L70.1217 104.97L70.3681 104.884L70.6183 104.801L70.8723 104.72L71.1303 104.641L71.3923 104.563L71.6585 104.488L71.929 104.414L72.2039 104.343L72.4834 104.273L72.7676 104.205L73.0567 104.139L73.3508 104.075L73.6501 104.013L73.9549 103.953L74.2653 103.894L74.5815 103.838L74.9038 103.783L75.2326 103.73L75.568 103.679L75.9105 103.63L76.2603 103.583L76.6179 103.537L76.9837 103.494L77.3582 103.452L77.7419 103.412L78.1355 103.374L78.5397 103.338L78.9551 103.304L79.3828 103.271L79.8237 103.241L80.279 103.212L80.7502 103.185L81.2387 103.16L81.7467 103.137L82.2764 103.115L82.8308 103.096L83.4135 103.078L84.0291 103.062L84.6839 103.048L85.386 103.035L86.1475 103.025L86.9863 103.016L87.9317 103.01L89.0387 103.005L90.4374 103.001L92.716 103L97.6843 103L99.3437 103.003L100.565 103.007L101.578 103.013L102.463 103.021L103.258 103.03L103.987 103.042L104.663 103.055L105.297 103.07L105.895 103.087L106.462 103.106L107.003 103.126L107.521 103.149L108.019 103.173L108.498 103.199L108.961 103.227L109.408 103.257L109.842 103.288L110.263 103.322L110.673 103.357L111.071 103.394L111.46 103.433L111.838 103.474L112.208 103.516L112.57 103.561L112.923 103.607L113.269 103.655L113.608 103.706L113.94 103.757L114.265 103.811L114.584 103.867L114.898 103.924L115.205 103.984L115.507 104.045L115.803 104.108L116.095 104.173L116.381 104.24L116.663 104.309L116.94 104.38L117.213 104.453L117.481 104.527L117.745 104.604L118.005 104.682L118.261 104.762L118.513 104.844L118.761 104.929L119.005 105.015L119.246 105.103L119.484 105.193L119.717 105.285L119.948 105.379L120.175 105.475L120.399 105.572L120.619 105.672L120.837 105.774L121.051 105.878L121.263 105.984L121.471 106.092L121.677 106.201L121.879 106.313L122.079 106.427L122.276 106.543L122.47 106.661L122.661 106.782L122.85 106.904L123.036 107.028L123.22 107.155L123.4 107.283L123.579 107.414L123.754 107.547L123.928 107.682L124.098 107.819L124.267 107.958L124.433 108.1L124.596 108.244L124.757 108.39L124.916 108.538L125.073 108.688L125.227 108.841L125.378 108.996L125.528 109.154L125.675 109.314L125.82 109.476L125.963 109.64L126.104 109.807L126.242 109.977L126.378 110.149L126.512 110.323L126.644 110.5L126.774 110.679L126.902 110.861L127.027 111.046L127.15 111.233L127.272 111.423L127.391 111.616L127.508 111.811L127.623 112.009L127.736 112.21L127.847 112.414L127.956 112.621L128.063 112.83L128.168 113.043L128.271 113.259L128.372 113.478L128.471 113.7L128.568 113.925L128.663 114.154L128.756 114.386L128.847 114.621L128.936 114.86L129.024 115.102L129.109 115.348L129.192 115.598L129.273 115.852L129.353 116.11L129.43 116.371L129.506 116.637L129.58 116.907L129.652 117.182L129.721 117.461L129.789 117.745L129.856 118.033L129.92 118.327L129.982 118.626L130.043 118.93L130.101 119.24L130.158 119.556L130.213 119.878L130.266 120.206L130.317 120.541L130.366 120.883L130.413 121.232L130.459 121.589L130.503 121.954L130.545 122.328L130.584 122.711L130.623 123.104L130.659 123.507L130.693 123.922L130.726 124.348L130.757 124.788L130.786 125.242L130.813 125.712L130.838 126.199L130.861 126.705L130.883 127.233L130.903 127.786L130.921 128.366L130.937 128.979L130.951 129.63L130.964 130.328L130.974 131.084L130.983 131.916L130.99 132.851L130.995 133.942L130.998 135.309L131 137.44L131 139.5Z" fill="#45DB55"/>
<path d="M108.567 125.419C104.834 121.7 99.8711 119.651 94.5829 119.649C83.6871 119.649 74.8193 128.474 74.8149 139.321C74.8135 142.788 75.7238 146.173 77.4536 149.156L74.6492 159.351L85.1284 156.615C88.0158 158.182 91.2665 159.008 94.575 159.01H94.5832C105.478 159.01 114.347 150.184 114.351 139.337C114.353 134.08 112.299 129.137 108.567 125.419V125.419ZM94.5832 155.687H94.5764C91.6282 155.686 88.7365 154.898 86.2139 153.408L85.6139 153.054L79.3953 154.677L81.0552 148.643L80.6644 148.024C79.0198 145.421 78.1511 142.412 78.1524 139.322C78.156 130.307 85.5266 122.972 94.5895 122.972C98.978 122.973 103.103 124.677 106.205 127.767C109.307 130.858 111.015 134.966 111.013 139.335C111.01 148.352 103.639 155.687 94.5832 155.687V155.687ZM103.595 143.441C103.101 143.195 100.673 142.005 100.22 141.841C99.7676 141.677 99.4384 141.595 99.109 142.087C98.7798 142.58 97.8332 143.687 97.545 144.015C97.2569 144.343 96.9688 144.384 96.4749 144.138C95.9809 143.892 94.3894 143.373 92.5028 141.698C91.0345 140.395 90.0432 138.785 89.755 138.293C89.4669 137.801 89.7244 137.535 89.9717 137.289C90.1938 137.069 90.4656 136.715 90.7126 136.428C90.9595 136.141 91.0419 135.936 91.2065 135.608C91.3711 135.28 91.2888 134.993 91.1653 134.747C91.0419 134.501 90.054 132.081 89.6424 131.097C89.2415 130.139 88.8342 130.268 88.531 130.253C88.2432 130.239 87.9136 130.236 87.5844 130.236C87.2551 130.236 86.72 130.359 86.2673 130.851C85.8145 131.343 84.5385 132.532 84.5385 134.952C84.5385 137.371 86.3084 139.709 86.5554 140.037C86.8023 140.365 90.0383 145.33 94.9931 147.46C96.1716 147.966 97.0916 148.268 97.809 148.495C98.9922 148.869 100.069 148.816 100.92 148.69C101.869 148.549 103.842 147.501 104.254 146.352C104.666 145.204 104.666 144.22 104.542 144.015C104.419 143.81 104.089 143.687 103.595 143.441V143.441Z" fill="white"/>
<path fill-rule="evenodd" clip-rule="evenodd" d="M242 36.5L241.999 40.1499L241.996 41.6617L241.992 42.8215L241.985 43.799L241.977 44.6599L241.967 45.4379L241.955 46.153L241.942 46.8182L241.926 47.4426L241.909 48.0327L241.89 48.5935L241.869 49.1288L241.846 49.6417L241.821 50.1347L241.794 50.6099L241.766 51.0688L241.736 51.5131L241.704 51.9438L241.67 52.3621L241.634 52.7689L241.597 53.1649L241.557 53.551L241.516 53.9276L241.473 54.2955L241.428 54.655L241.381 55.0066L241.333 55.3508L241.282 55.6879L241.23 56.0182L241.176 56.342L241.119 56.6597L241.061 56.9715L241.002 57.2775L240.94 57.5781L240.876 57.8735L240.811 58.1637L240.743 58.4491L240.674 58.7297L240.603 59.0057L240.53 59.2772L240.455 59.5445L240.378 59.8075L240.299 60.0664L240.218 60.3214L240.136 60.5724L240.051 60.8197L239.964 61.0633L239.876 61.3033L239.785 61.5398L239.693 61.7728L239.599 62.0024L239.502 62.2287L239.404 62.4518L239.304 62.6717L239.201 62.8884L239.097 63.1021L238.991 63.3128L238.882 63.5205L238.772 63.7252L238.66 63.9271L238.545 64.1261L238.429 64.3224L238.31 64.5159L238.189 64.7066L238.067 64.8947L237.942 65.0801L237.815 65.263L237.686 65.4432L237.555 65.6209L237.421 65.7961L237.286 65.9687L237.148 66.1389L237.008 66.3067L236.866 66.472L236.722 66.6349L236.575 66.7955L236.426 66.9537L236.275 67.1095L236.122 67.2631L235.966 67.4144L235.808 67.5633L235.648 67.7101L235.485 67.8546L235.32 67.9968L235.152 68.1369L234.982 68.2748L234.81 68.4105L234.635 68.544L234.457 68.6754L234.277 68.8046L234.095 68.9317L233.91 69.0567L233.722 69.1796L233.531 69.3004L233.338 69.4192L233.142 69.5359L232.943 69.6505L232.741 69.763L232.537 69.8736L232.329 69.9821L232.119 70.0886L231.906 70.193L231.689 70.2955L231.469 70.396L231.247 70.4945L231.021 70.591L230.791 70.6855L230.558 70.7781L230.322 70.8687L230.083 70.9574L229.839 71.0441L229.592 71.1289L229.342 71.2117L229.087 71.2926L228.828 71.3716L228.566 71.4487L228.299 71.5239L228.027 71.5971L227.752 71.6684L227.472 71.7379L227.187 71.8054L226.897 71.8711L226.602 71.9349L226.302 71.9968L225.996 72.0568L225.685 72.1149L225.368 72.1712L225.044 72.2256L224.714 72.2781L224.378 72.3288L224.034 72.3776L223.683 72.4245L223.324 72.4696L222.957 72.5128L222.581 72.5542L222.196 72.5938L221.801 72.6315L221.395 72.6673L220.978 72.7013L220.548 72.7335L220.105 72.7638L219.647 72.7923L219.173 72.819L218.682 72.8438L218.17 72.8668L217.637 72.8879L217.078 72.9073L216.491 72.9248L215.869 72.9404L215.208 72.9543L214.497 72.9663L213.725 72.9765L212.871 72.9848L211.905 72.9914L210.763 72.9961L209.292 72.9989L206.53 73L201.998 72.9992L200.442 72.9966L199.263 72.9922L198.274 72.986L197.405 72.9779L196.621 72.968L195.902 72.9563L195.233 72.9427L194.606 72.9274L194.013 72.9102L193.45 72.8911L192.913 72.8703L192.398 72.8476L191.904 72.823L191.427 72.7967L190.967 72.7685L190.522 72.7384L190.09 72.7066L189.671 72.6729L189.263 72.6373L188.866 72.5999L188.479 72.5607L188.102 72.5196L187.733 72.4766L187.373 72.4318L187.021 72.3852L186.676 72.3367L186.339 72.2863L186.008 72.2341L185.683 72.18L185.365 72.124L185.053 72.0662L184.747 72.0065L184.446 71.9449L184.15 71.8814L183.859 71.816L183.573 71.7488L183.292 71.6796L183.016 71.6086L182.744 71.5356L182.477 71.4608L182.213 71.384L181.954 71.3053L181.699 71.2247L181.447 71.1422L181.2 71.0577L180.956 70.9713L180.716 70.883L180.479 70.7927L180.246 70.7004L180.016 70.6062L179.789 70.51L179.566 70.4118L179.346 70.3116L179.129 70.2095L178.915 70.1053L178.704 69.9992L178.496 69.891L178.291 69.7808L178.089 69.6685L177.89 69.5543L177.693 69.4379L177.499 69.3195L177.308 69.199L177.12 69.0764L176.935 68.9518L176.751 68.825L176.571 68.6961L176.393 68.565L176.218 68.4319L176.045 68.2965L175.875 68.159L175.707 68.0193L175.541 67.8774L175.378 67.7332L175.217 67.5869L175.059 67.4382L174.903 67.2873L174.749 67.1342L174.598 66.9787L174.448 66.8208L174.302 66.6606L174.157 66.4981L174.014 66.3332L173.874 66.1658L173.736 65.996L173.6 65.8237L173.467 65.649L173.335 65.4717L173.206 65.2918L173.078 65.1094L172.953 64.9244L172.83 64.7368L172.709 64.5464L172.59 64.3534L172.473 64.1576L172.359 63.959L172.246 63.7575L172.135 63.5533L172.026 63.346L171.92 63.1359L171.815 62.9227L171.713 62.7064L171.612 62.487L171.513 62.2645L171.417 62.0387L171.322 61.8096L171.229 61.5771L171.138 61.3412L171.05 61.1018L170.963 60.8588L170.878 60.6121L170.795 60.3616L170.714 60.1073L170.635 59.849L170.557 59.5866L170.482 59.3201L170.409 59.0492L170.337 58.7739L170.268 58.4941L170.2 58.2095L170.134 57.92L170.07 57.6255L170.008 57.3258L169.948 57.0206L169.89 56.7098L169.833 56.393L169.779 56.0702L169.726 55.7409L169.675 55.4049L169.626 55.0619L169.579 54.7115L169.534 54.3533L169.491 53.9868L169.449 53.6116L169.409 53.2271L169.371 52.8327L169.335 52.4277L169.301 52.0113L169.269 51.5826L169.239 51.1406L169.21 50.684L169.183 50.2116L169.158 49.7215L169.135 49.2119L169.114 48.6803L169.094 48.1238L169.077 47.5387L169.061 46.9202L169.047 46.262L169.035 45.5556L169.024 44.7888L169.016 43.9428L169.009 42.9871L169.004 41.8632L169.001 40.4299L169 37.9566L169.001 33.1532L169.003 31.548L169.007 30.3485L169.013 29.3477L169.021 28.4709L169.031 27.6813L169.043 26.9572L169.056 26.2847L169.071 25.6544L169.088 25.0592L169.107 24.494L169.128 23.9549L169.151 23.4385L169.175 22.9425L169.201 22.4646L169.229 22.0032L169.259 21.5567L169.291 21.1239L169.324 20.7037L169.36 20.2951L169.397 19.8974L169.436 19.5098L169.477 19.1317L169.52 18.7625L169.565 18.4017L169.611 18.0488L169.659 17.7035L169.71 17.3653L169.762 17.0339L169.816 16.7091L169.871 16.3904L169.929 16.0777L169.989 15.7708L170.05 15.4693L170.113 15.1732L170.179 14.8821L170.246 14.596L170.315 14.3147L170.386 14.0379L170.458 13.7657L170.533 13.4978L170.61 13.2341L170.688 12.9745L170.769 12.7189L170.851 12.4672L170.935 12.2194L171.022 11.9752L171.11 11.7346L171.2 11.4976L171.292 11.264L171.386 11.0339L171.482 10.807L171.58 10.5835L171.68 10.3631L171.782 10.1458L171.886 9.93166L171.992 9.72053L172.1 9.51238L172.21 9.30716L172.322 9.10483L172.437 8.90534L172.553 8.70866L172.671 8.51473L172.791 8.32353L172.914 8.13502L173.038 7.94916L173.165 7.76593L173.294 7.58528L173.424 7.40719L173.557 7.23162L173.693 7.05857L173.83 6.88798L173.969 6.71985L174.111 6.55413L174.255 6.39082L174.401 6.22989L174.55 6.07132L174.701 5.91508L174.854 5.76116L175.009 5.60953L175.167 5.46018L175.326 5.31309L175.489 5.16824L175.654 5.02562L175.821 4.88521L175.99 4.747L176.162 4.61096L176.337 4.47709L176.514 4.34537L176.694 4.21579L176.876 4.08834L177.061 3.963L177.248 3.83976L177.438 3.71861L177.631 3.59954L177.827 3.48254L178.025 3.36759L178.226 3.2547L178.43 3.14384L178.637 3.03502L178.847 2.92821L179.06 2.82342L179.276 2.72063L179.495 2.61983L179.718 2.52102L179.943 2.4242L180.172 2.32935L180.404 2.23646L180.64 2.14553L180.879 2.05656L181.122 1.96953L181.368 1.88445L181.618 1.8013L181.872 1.72008L182.13 1.64078L182.392 1.56341L182.659 1.48794L182.929 1.41439L183.204 1.34274L183.483 1.27299L183.768 1.20514L184.057 1.13917L184.351 1.0751L184.65 1.01291L184.955 0.952599L185.265 0.894164L185.581 0.837604L185.904 0.782913L186.233 0.730088L186.568 0.679128L186.91 0.630028L187.26 0.582787L187.618 0.537401L187.984 0.493869L188.358 0.452187L188.742 0.412353L189.136 0.374366L189.54 0.338224L189.955 0.303923L190.383 0.271463L190.824 0.240843L191.279 0.212059L191.75 0.185111L192.239 0.159998L192.747 0.136718L193.276 0.115269L193.831 0.0956519L194.413 0.0778642L195.029 0.0619055L195.684 0.0477749L196.386 0.0354717L197.148 0.0249953L197.986 0.0163452L198.932 0.00952089L200.039 0.00452208L201.437 0.0013485L203.716 0L208.684 0.000476513L210.344 0.00277806L211.565 0.00690476L212.578 0.0128568L213.463 0.0206345L214.258 0.0302383L214.987 0.0416686L215.663 0.0549259L216.297 0.0700111L216.895 0.0869248L217.462 0.105668L218.003 0.126241L218.521 0.148646L219.019 0.172883L219.498 0.198955L219.961 0.226861L220.408 0.256604L220.842 0.288185L221.263 0.321605L221.673 0.356868L222.071 0.393973L222.46 0.432924L222.838 0.473723L223.208 0.516371L223.57 0.560871L223.923 0.607225L224.269 0.655436L224.608 0.705507L224.94 0.757441L225.265 0.811239L225.584 0.866906L225.898 0.924445L226.205 0.983859L226.507 1.04515L226.803 1.10832L227.095 1.17338L227.381 1.24033L227.663 1.30918L227.94 1.37992L228.213 1.45256L228.481 1.52711L228.745 1.60357L229.005 1.68195L229.261 1.76225L229.513 1.84448L229.761 1.92864L230.005 2.01474L230.246 2.10278L230.484 2.19277L230.717 2.28472L230.948 2.37863L231.175 2.47451L231.399 2.57237L231.619 2.67222L231.837 2.77405L232.051 2.87789L232.263 2.98373L232.471 3.09159L232.677 3.20148L232.879 3.3134L233.079 3.42736L233.276 3.54338L233.47 3.66146L233.661 3.78161L233.85 3.90385L234.036 4.02819L234.22 4.15463L234.4 4.28319L234.579 4.41389L234.754 4.54673L234.928 4.68173L235.098 4.8189L235.267 4.95826L235.433 5.09982L235.596 5.24361L235.757 5.38962L235.916 5.53789L236.073 5.68843L236.227 5.84125L236.378 5.99638L236.528 6.15383L236.675 6.31364L236.82 6.47581L236.963 6.64037L237.104 6.80734L237.242 6.97675L237.378 7.14863L237.512 7.32299L237.644 7.49987L237.774 7.67929L237.902 7.86129L238.027 8.04589L238.15 8.23313L238.272 8.42304L238.391 8.61566L238.508 8.81102L238.623 9.00916L238.736 9.21013L238.847 9.41397L238.956 9.62071L239.063 9.83041L239.168 10.0431L239.271 10.2589L239.372 10.4778L239.471 10.6998L239.568 10.9251L239.663 11.1536L239.756 11.3856L239.847 11.6209L239.936 11.8598L240.024 12.1022L240.109 12.3483L240.192 12.5982L240.273 12.8519L240.353 13.1096L240.43 13.3713L240.506 13.6371L240.58 13.9073L240.652 14.1819L240.721 14.461L240.789 14.7448L240.856 15.0335L240.92 15.3272L240.982 15.6261L241.043 15.9304L241.101 16.2403L241.158 16.5561L241.213 16.8779L241.266 17.2061L241.317 17.541L241.366 17.8829L241.413 18.2321L241.459 18.5891L241.503 18.9542L241.545 19.328L241.584 19.711L241.623 20.1038L241.659 20.5071L241.693 20.9216L241.726 21.3482L241.757 21.7881L241.786 22.2422L241.813 22.712L241.838 23.1991L241.861 23.7055L241.883 24.2334L241.903 24.7857L241.921 25.3659L241.937 25.9788L241.951 26.6301L241.964 27.3281L241.974 28.0843L241.983 28.9161L241.99 29.8514L241.995 30.9425L241.998 32.3088L242 34.44L242 36.5Z" fill="#FF946E"/>
<mask id="path-5-outside-1_1287_6844" maskUnits="userSpaceOnUse" x="184.895" y="16.8279" width="40" height="42" fill="black">
<rect fill="white" x="184.895" y="16.8279" width="40" height="42"/>
<path fill-rule="evenodd" clip-rule="evenodd" d="M187.895 53.7895L187.912 22.324C187.912 20.3924 189.424 18.8279 191.311 18.8279H218.645C220.533 18.8279 222.062 20.3924 222.062 22.324V43.301C222.062 45.2327 220.533 46.7972 218.645 46.7972H194.728L187.895 53.7895ZM196.807 33.804H199.852V30.6879H196.807V33.804ZM203.64 33.804H206.686V30.6879H203.64V33.804ZM213.519 33.804H210.474V30.6879H213.519V33.804Z"/>
</mask>
<path d="M187.912 22.324L189.912 22.3251V22.324H187.912ZM187.895 53.7895L185.895 53.7884L185.892 58.7002L189.325 55.1874L187.895 53.7895ZM194.728 46.7972V44.7972H193.886L193.298 45.3993L194.728 46.7972ZM199.852 33.804V35.804H201.852V33.804H199.852ZM196.807 33.804H194.807V35.804H196.807V33.804ZM199.852 30.6879H201.852V28.6879H199.852V30.6879ZM196.807 30.6879V28.6879H194.807V30.6879H196.807ZM206.686 33.804V35.804H208.686V33.804H206.686ZM203.64 33.804H201.64V35.804H203.64V33.804ZM206.686 30.6879H208.686V28.6879H206.686V30.6879ZM203.64 30.6879V28.6879H201.64V30.6879H203.64ZM210.474 33.804H208.474V35.804H210.474V33.804ZM213.519 33.804V35.804H215.519V33.804H213.519ZM210.474 30.6879V28.6879H208.474V30.6879H210.474ZM213.519 30.6879H215.519V28.6879H213.519V30.6879ZM185.912 22.323L185.895 53.7884L189.895 53.7906L189.912 22.3251L185.912 22.323ZM191.311 16.8279C188.263 16.8279 185.912 19.3446 185.912 22.324H189.912C189.912 21.4402 190.584 20.8279 191.311 20.8279V16.8279ZM218.645 16.8279H191.311V20.8279H218.645V16.8279ZM224.062 22.324C224.062 19.3314 221.68 16.8279 218.645 16.8279V20.8279C219.385 20.8279 220.062 21.4534 220.062 22.324H224.062ZM224.062 43.301V22.324H220.062V43.301H224.062ZM218.645 48.7972C221.68 48.7972 224.062 46.2937 224.062 43.301H220.062C220.062 44.1717 219.385 44.7972 218.645 44.7972V48.7972ZM194.728 48.7972H218.645V44.7972H194.728V48.7972ZM189.325 55.1874L196.159 48.1951L193.298 45.3993L186.464 52.3916L189.325 55.1874ZM199.852 31.804H196.807V35.804H199.852V31.804ZM197.852 30.6879V33.804H201.852V30.6879H197.852ZM196.807 32.6879H199.852V28.6879H196.807V32.6879ZM198.807 33.804V30.6879H194.807V33.804H198.807ZM206.686 31.804H203.64V35.804H206.686V31.804ZM204.686 30.6879V33.804H208.686V30.6879H204.686ZM203.64 32.6879H206.686V28.6879H203.64V32.6879ZM205.64 33.804V30.6879H201.64V33.804H205.64ZM210.474 35.804H213.519V31.804H210.474V35.804ZM208.474 30.6879V33.804H212.474V30.6879H208.474ZM213.519 28.6879H210.474V32.6879H213.519V28.6879ZM215.519 33.804V30.6879H211.519V33.804H215.519Z" fill="white" mask="url(#path-5-outside-1_1287_6844)"/>
<path fill-rule="evenodd" clip-rule="evenodd" d="M73 262.5L72.9991 266.15L72.9963 267.662L72.9918 268.821L72.9854 269.799L72.9772 270.66L72.9671 271.438L72.9553 272.153L72.9416 272.818L72.9261 273.443L72.9087 274.033L72.8895 274.593L72.8685 275.129L72.8457 275.642L72.821 276.135L72.7945 276.61L72.7661 277.069L72.736 277.513L72.7039 277.944L72.6701 278.362L72.6344 278.769L72.5968 279.165L72.5574 279.551L72.5162 279.928L72.4731 280.295L72.4282 280.655L72.3814 281.007L72.3327 281.351L72.2822 281.688L72.2298 282.018L72.1756 282.342L72.1195 282.66L72.0615 282.971L72.0016 283.278L71.9399 283.578L71.8762 283.873L71.8107 284.164L71.7433 284.449L71.674 284.73L71.6028 285.006L71.5297 285.277L71.4547 285.544L71.3778 285.807L71.299 286.066L71.2182 286.321L71.1355 286.572L71.0509 286.82L70.9644 287.063L70.8758 287.303L70.7854 287.54L70.693 287.773L70.5986 288.002L70.5022 288.229L70.4039 288.452L70.3036 288.672L70.2013 288.888L70.097 289.102L69.9906 289.313L69.8823 289.52L69.7719 289.725L69.6595 289.927L69.5451 290.126L69.4285 290.322L69.31 290.516L69.1893 290.707L69.0666 290.895L68.9417 291.08L68.8148 291.263L68.6857 291.443L68.5545 291.621L68.4212 291.796L68.2856 291.969L68.148 292.139L68.0081 292.307L67.866 292.472L67.7217 292.635L67.5751 292.795L67.4263 292.954L67.2752 293.11L67.1219 293.263L66.9662 293.414L66.8082 293.563L66.6478 293.71L66.485 293.855L66.3199 293.997L66.1524 294.137L65.9824 294.275L65.8099 294.41L65.6349 294.544L65.4575 294.675L65.2774 294.805L65.0948 294.932L64.9096 295.057L64.7217 295.18L64.5311 295.3L64.3379 295.419L64.1418 295.536L63.943 295.65L63.7414 295.763L63.5369 295.874L63.3294 295.982L63.119 296.089L62.9056 296.193L62.6891 296.296L62.4694 296.396L62.2466 296.494L62.0206 296.591L61.7912 296.686L61.5585 296.778L61.3223 296.869L61.0826 296.957L60.8393 297.044L60.5923 297.129L60.3415 297.212L60.0869 297.293L59.8282 297.372L59.5656 297.449L59.2987 297.524L59.0275 297.597L58.7518 297.668L58.4716 297.738L58.1866 297.805L57.8968 297.871L57.6018 297.935L57.3017 297.997L56.996 298.057L56.6848 298.115L56.3676 298.171L56.0442 298.226L55.7144 298.278L55.3779 298.329L55.0343 298.378L54.6833 298.425L54.3244 298.47L53.9573 298.513L53.5813 298.554L53.196 298.594L52.8008 298.631L52.3949 298.667L51.9776 298.701L51.5479 298.733L51.1047 298.764L50.647 298.792L50.1732 298.819L49.6817 298.844L49.1704 298.867L48.637 298.888L48.0784 298.907L47.4908 298.925L46.8694 298.94L46.2077 298.954L45.497 298.966L44.7246 298.976L43.8713 298.985L42.9048 298.991L41.7634 298.996L40.2925 298.999L37.53 299L32.9984 298.999L31.4421 298.997L30.2629 298.992L29.2739 298.986L28.4052 298.978L27.6215 298.968L26.9019 298.956L26.2331 298.943L25.6058 298.927L25.0131 298.91L24.4502 298.891L23.913 298.87L23.3983 298.848L22.9038 298.823L22.4273 298.797L21.9671 298.768L21.5217 298.738L21.09 298.707L20.6707 298.673L20.2631 298.637L19.8662 298.6L19.4794 298.561L19.102 298.52L18.7335 298.477L18.3733 298.432L18.0211 298.385L17.6763 298.337L17.3387 298.286L17.0079 298.234L16.6835 298.18L16.3653 298.124L16.0531 298.066L15.7466 298.006L15.4456 297.945L15.1498 297.881L14.8592 297.816L14.5734 297.749L14.2925 297.68L14.0161 297.609L13.7442 297.536L13.4766 297.461L13.2133 297.384L12.954 297.305L12.6988 297.225L12.4474 297.142L12.1998 297.058L11.9559 296.971L11.7156 296.883L11.4789 296.793L11.2456 296.7L11.0157 296.606L10.7891 296.51L10.5658 296.412L10.3457 296.312L10.1287 296.209L9.91476 296.105L9.70387 295.999L9.49596 295.891L9.29097 295.781L9.08887 295.669L8.8896 295.554L8.69314 295.438L8.49943 295.319L8.30845 295.199L8.12015 295.076L7.9345 294.952L7.75147 294.825L7.57103 294.696L7.39314 294.565L7.21778 294.432L7.04492 294.297L6.87453 294.159L6.70659 294.019L6.54107 293.877L6.37795 293.733L6.21721 293.587L6.05882 293.438L5.90276 293.287L5.74903 293.134L5.59758 292.979L5.44841 292.821L5.3015 292.661L5.15683 292.498L5.01439 292.333L4.87415 292.166L4.73611 291.996L4.60025 291.824L4.46655 291.649L4.335 291.472L4.20559 291.292L4.0783 291.109L3.95313 290.924L3.83006 290.737L3.70908 290.546L3.59017 290.353L3.47333 290.158L3.35856 289.959L3.24582 289.758L3.13513 289.553L3.02646 289.346L2.91982 289.136L2.81518 288.923L2.71255 288.706L2.61192 288.487L2.51327 288.264L2.4166 288.039L2.32191 287.81L2.22918 287.577L2.1384 287.341L2.04959 287.102L1.96272 286.859L1.87778 286.612L1.79479 286.362L1.71372 286.107L1.63458 285.849L1.55735 285.587L1.48204 285.32L1.40864 285.049L1.33714 284.774L1.26755 284.494L1.19984 284.209L1.13403 283.92L1.07011 283.626L1.00807 283.326L0.947905 283.021L0.88962 282.71L0.833208 282.393L0.778666 282.07L0.725991 281.741L0.675178 281.405L0.626227 281.062L0.579134 280.712L0.533896 280.353L0.49051 279.987L0.448976 279.612L0.40929 279.227L0.371449 278.833L0.335453 278.428L0.3013 278.011L0.268986 277.583L0.238512 277.141L0.209875 276.684L0.183073 276.212L0.158106 275.722L0.134971 275.212L0.113669 274.68L0.0941972 274.124L0.0765553 273.539L0.0607422 272.92L0.0467571 272.262L0.0345994 271.556L0.0242685 270.789L0.0157638 269.943L0.00908486 268.987L0.0042314 267.863L0.00120317 266.43L0 263.957L0.000621843 259.153L0.00306873 257.548L0.00734077 256.349L0.0134382 255.348L0.0213613 254.471L0.0311105 253.681L0.0426862 252.957L0.0560891 252.285L0.0713199 251.654L0.0883792 251.059L0.107268 250.494L0.127987 249.955L0.150538 249.439L0.174921 248.942L0.201138 248.465L0.229191 248.003L0.25908 247.557L0.290807 247.124L0.324375 246.704L0.359784 246.295L0.397036 245.897L0.436134 245.51L0.47708 245.132L0.519875 244.762L0.564523 244.402L0.611025 244.049L0.659384 243.703L0.709603 243.365L0.761685 243.034L0.815632 242.709L0.871448 242.39L0.929136 242.078L0.988699 241.771L1.05014 241.469L1.11346 241.173L1.17867 240.882L1.24577 240.596L1.31477 240.315L1.38566 240.038L1.45846 239.766L1.53316 239.498L1.60977 239.234L1.6883 238.975L1.76876 238.719L1.85114 238.467L1.93545 238.219L2.0217 237.975L2.1099 237.735L2.20005 237.498L2.29215 237.264L2.38622 237.034L2.48226 236.807L2.58028 236.583L2.68028 236.363L2.78228 236.146L2.88627 235.932L2.99227 235.721L3.1003 235.512L3.21034 235.307L3.32242 235.105L3.43655 234.905L3.55273 234.709L3.67098 234.515L3.7913 234.324L3.9137 234.135L4.0382 233.949L4.16482 233.766L4.29355 233.585L4.42441 233.407L4.55743 233.232L4.6926 233.059L4.82994 232.888L4.96948 232.72L5.11122 232.554L5.25518 232.391L5.40137 232.23L5.54982 232.071L5.70054 231.915L5.85354 231.761L6.00886 231.61L6.1665 231.46L6.32649 231.313L6.48885 231.168L6.6536 231.026L6.82077 230.885L6.99037 230.747L7.16245 230.611L7.33701 230.477L7.51409 230.345L7.69371 230.216L7.87592 230.088L8.06073 229.963L8.24818 229.84L8.4383 229.719L8.63114 229.6L8.82672 229.483L9.02509 229.368L9.22628 229.255L9.43035 229.144L9.63732 229.035L9.84726 228.928L10.0602 228.823L10.2762 228.721L10.4953 228.62L10.7176 228.521L10.9432 228.424L11.172 228.329L11.4042 228.236L11.6398 228.146L11.879 228.057L12.1217 227.97L12.3681 227.884L12.6183 227.801L12.8723 227.72L13.1303 227.641L13.3923 227.563L13.6585 227.488L13.929 227.414L14.2039 227.343L14.4834 227.273L14.7676 227.205L15.0567 227.139L15.3508 227.075L15.6501 227.013L15.9549 226.953L16.2653 226.894L16.5815 226.838L16.9038 226.783L17.2326 226.73L17.568 226.679L17.9105 226.63L18.2603 226.583L18.6179 226.537L18.9837 226.494L19.3582 226.452L19.7419 226.412L20.1355 226.374L20.5397 226.338L20.9551 226.304L21.3828 226.271L21.8237 226.241L22.279 226.212L22.7502 226.185L23.2387 226.16L23.7467 226.137L24.2764 226.115L24.8308 226.096L25.4135 226.078L26.0291 226.062L26.6839 226.048L27.386 226.035L28.1475 226.025L28.9863 226.016L29.9317 226.01L31.0387 226.005L32.4374 226.001L34.716 226L39.6843 226L41.3437 226.003L42.5647 226.007L43.5778 226.013L44.4628 226.021L45.2584 226.03L45.9871 226.042L46.6633 226.055L47.2968 226.07L47.8945 226.087L48.4619 226.106L49.003 226.126L49.5211 226.149L50.0187 226.173L50.4979 226.199L50.9606 226.227L51.4082 226.257L51.8421 226.288L52.2633 226.322L52.6727 226.357L53.0713 226.394L53.4596 226.433L53.8385 226.474L54.2084 226.516L54.5698 226.561L54.9233 226.607L55.2692 226.655L55.608 226.706L55.9399 226.757L56.2652 226.811L56.5844 226.867L56.8975 226.924L57.2049 226.984L57.5068 227.045L57.8034 227.108L58.0948 227.173L58.3813 227.24L58.6631 227.309L58.9402 227.38L59.2128 227.453L59.481 227.527L59.745 227.604L60.0049 227.682L60.2608 227.762L60.5128 227.844L60.761 227.929L61.0055 228.015L61.2463 228.103L61.4836 228.193L61.7174 228.285L61.9479 228.379L62.175 228.475L62.3988 228.572L62.6194 228.672L62.8369 228.774L63.0513 228.878L63.2627 228.984L63.4711 229.092L63.6765 229.201L63.8791 229.313L64.0788 229.427L64.2757 229.543L64.4699 229.661L64.6613 229.782L64.85 229.904L65.0361 230.028L65.2195 230.155L65.4004 230.283L65.5787 230.414L65.7544 230.547L65.9277 230.682L66.0985 230.819L66.2668 230.958L66.4327 231.1L66.5962 231.244L66.7573 231.39L66.9161 231.538L67.0725 231.688L67.2266 231.841L67.3784 231.996L67.528 232.154L67.6752 232.314L67.8202 232.476L67.963 232.64L68.1036 232.807L68.242 232.977L68.3782 233.149L68.5123 233.323L68.6442 233.5L68.7739 233.679L68.9015 233.861L69.027 234.046L69.1505 234.233L69.2718 234.423L69.391 234.616L69.5082 234.811L69.6233 235.009L69.7363 235.21L69.8473 235.414L69.9563 235.621L70.0633 235.83L70.1683 236.043L70.2712 236.259L70.3722 236.478L70.4711 236.7L70.5681 236.925L70.6631 237.154L70.7562 237.386L70.8472 237.621L70.9364 237.86L71.0236 238.102L71.1088 238.348L71.1921 238.598L71.2735 238.852L71.3529 239.11L71.4304 239.371L71.5061 239.637L71.5798 239.907L71.6516 240.182L71.7215 240.461L71.7895 240.745L71.8556 241.033L71.9198 241.327L71.9822 241.626L72.0426 241.93L72.1012 242.24L72.1579 242.556L72.2127 242.878L72.2657 243.206L72.3168 243.541L72.3661 243.883L72.4135 244.232L72.459 244.589L72.5027 244.954L72.5445 245.328L72.5845 245.711L72.6226 246.104L72.6589 246.507L72.6934 246.922L72.726 247.348L72.7567 247.788L72.7857 248.242L72.8128 248.712L72.838 249.199L72.8614 249.705L72.883 250.233L72.9028 250.786L72.9207 251.366L72.9368 251.979L72.9511 252.63L72.9636 253.328L72.9742 254.084L72.983 254.916L72.9899 255.851L72.9951 256.942L72.9984 258.309L72.9999 260.44L73 262.5Z" fill="#3D9B8D"/>
<path fill-rule="evenodd" clip-rule="evenodd" d="M16.7041 251.141C16.1707 252.147 15.8808 253.286 15.8808 254.425L15.8808 270.575C15.8808 273.899 18.3508 277.228 22.1387 277.228L50.8615 277.228C54.6494 277.228 57.1194 273.899 57.1194 270.575L57.1194 254.425C57.1194 253.771 57.0538 253.031 56.8837 252.302C56.7253 251.622 56.4344 250.769 55.8668 250.007C55.2353 249.124 54.1336 248.387 52.7154 248.021C52.1586 247.859 51.5694 247.772 50.9594 247.772L50.6941 247.772C50.6939 247.772 50.6936 247.772 50.6933 247.772L22.1626 247.772L22.1387 247.772C21.4867 247.772 20.8738 247.871 20.3057 248.051C19.0303 248.445 17.9322 249.232 17.1546 250.26C16.9518 250.528 16.8005 250.827 16.7041 251.141ZM51.9097 250.759C52.5433 250.944 53.1002 251.309 53.5211 251.794L38.3455 261.353C37.2535 262.041 35.8653 262.049 34.7656 261.373L19.5271 252.013C20.07 251.27 20.8583 250.763 21.7526 250.649C21.887 250.633 22.0238 250.624 22.1626 250.624L50.6933 250.624C50.6936 250.624 50.6938 250.624 50.694 250.624C51.158 250.624 51.5622 250.676 51.9097 250.759ZM54.2406 270.575L54.2406 254.721L39.8899 263.76C37.8654 265.035 35.2878 265.05 33.2488 263.798L18.7595 254.897L18.7595 270.575C18.7595 272.674 20.2724 274.376 22.1387 274.376L50.8615 274.376C52.7277 274.376 54.2406 272.674 54.2406 270.575Z" fill="white"/>
<path fill-rule="evenodd" clip-rule="evenodd" d="M131 422.5L130.999 426.15L130.996 427.662L130.992 428.821L130.985 429.799L130.977 430.66L130.967 431.438L130.955 432.153L130.942 432.818L130.926 433.443L130.909 434.033L130.89 434.593L130.869 435.129L130.846 435.642L130.821 436.135L130.794 436.61L130.766 437.069L130.736 437.513L130.704 437.944L130.67 438.362L130.634 438.769L130.597 439.165L130.557 439.551L130.516 439.928L130.473 440.295L130.428 440.655L130.381 441.007L130.333 441.351L130.282 441.688L130.23 442.018L130.176 442.342L130.119 442.66L130.061 442.971L130.002 443.278L129.94 443.578L129.876 443.873L129.811 444.164L129.743 444.449L129.674 444.73L129.603 445.006L129.53 445.277L129.455 445.544L129.378 445.807L129.299 446.066L129.218 446.321L129.136 446.572L129.051 446.82L128.964 447.063L128.876 447.303L128.785 447.54L128.693 447.773L128.599 448.002L128.502 448.229L128.404 448.452L128.304 448.672L128.201 448.888L128.097 449.102L127.991 449.313L127.882 449.52L127.772 449.725L127.66 449.927L127.545 450.126L127.429 450.322L127.31 450.516L127.189 450.707L127.067 450.895L126.942 451.08L126.815 451.263L126.686 451.443L126.555 451.621L126.421 451.796L126.286 451.969L126.148 452.139L126.008 452.307L125.866 452.472L125.722 452.635L125.575 452.795L125.426 452.954L125.275 453.11L125.122 453.263L124.966 453.414L124.808 453.563L124.648 453.71L124.485 453.855L124.32 453.997L124.152 454.137L123.982 454.275L123.81 454.41L123.635 454.544L123.457 454.675L123.277 454.805L123.095 454.932L122.91 455.057L122.722 455.18L122.531 455.3L122.338 455.419L122.142 455.536L121.943 455.65L121.741 455.763L121.537 455.874L121.329 455.982L121.119 456.089L120.906 456.193L120.689 456.296L120.469 456.396L120.247 456.494L120.021 456.591L119.791 456.686L119.558 456.778L119.322 456.869L119.083 456.957L118.839 457.044L118.592 457.129L118.342 457.212L118.087 457.293L117.828 457.372L117.566 457.449L117.299 457.524L117.027 457.597L116.752 457.668L116.472 457.738L116.187 457.805L115.897 457.871L115.602 457.935L115.302 457.997L114.996 458.057L114.685 458.115L114.368 458.171L114.044 458.226L113.714 458.278L113.378 458.329L113.034 458.378L112.683 458.425L112.324 458.47L111.957 458.513L111.581 458.554L111.196 458.594L110.801 458.631L110.395 458.667L109.978 458.701L109.548 458.733L109.105 458.764L108.647 458.792L108.173 458.819L107.682 458.844L107.17 458.867L106.637 458.888L106.078 458.907L105.491 458.925L104.869 458.94L104.208 458.954L103.497 458.966L102.725 458.976L101.871 458.985L100.905 458.991L99.7634 458.996L98.2925 458.999L95.53 459L90.9984 458.999L89.4421 458.997L88.2629 458.992L87.2739 458.986L86.4052 458.978L85.6215 458.968L84.9019 458.956L84.2331 458.943L83.6058 458.927L83.0131 458.91L82.4502 458.891L81.913 458.87L81.3983 458.848L80.9038 458.823L80.4273 458.797L79.9671 458.768L79.5217 458.738L79.09 458.707L78.6707 458.673L78.2631 458.637L77.8662 458.6L77.4794 458.561L77.102 458.52L76.7335 458.477L76.3733 458.432L76.0211 458.385L75.6763 458.337L75.3387 458.286L75.0079 458.234L74.6835 458.18L74.3653 458.124L74.0531 458.066L73.7466 458.006L73.4456 457.945L73.1498 457.881L72.8592 457.816L72.5734 457.749L72.2925 457.68L72.0161 457.609L71.7442 457.536L71.4766 457.461L71.2133 457.384L70.954 457.305L70.6988 457.225L70.4474 457.142L70.1998 457.058L69.9559 456.971L69.7156 456.883L69.4789 456.793L69.2456 456.7L69.0157 456.606L68.7891 456.51L68.5658 456.412L68.3457 456.312L68.1287 456.209L67.9148 456.105L67.7039 455.999L67.496 455.891L67.291 455.781L67.0889 455.669L66.8896 455.554L66.6931 455.438L66.4994 455.319L66.3084 455.199L66.1201 455.076L65.9345 454.952L65.7515 454.825L65.571 454.696L65.3931 454.565L65.2178 454.432L65.0449 454.297L64.8745 454.159L64.7066 454.019L64.5411 453.877L64.3779 453.733L64.2172 453.587L64.0588 453.438L63.9028 453.287L63.749 453.134L63.5976 452.979L63.4484 452.821L63.3015 452.661L63.1568 452.498L63.0144 452.333L62.8742 452.166L62.7361 451.996L62.6002 451.824L62.4665 451.649L62.335 451.472L62.2056 451.292L62.0783 451.109L61.9531 450.924L61.8301 450.737L61.7091 450.546L61.5902 450.353L61.4733 450.158L61.3586 449.959L61.2458 449.758L61.1351 449.553L61.0265 449.346L60.9198 449.136L60.8152 448.923L60.7126 448.706L60.6119 448.487L60.5133 448.264L60.4166 448.039L60.3219 447.81L60.2292 447.577L60.1384 447.341L60.0496 447.102L59.9627 446.859L59.8778 446.612L59.7948 446.362L59.7137 446.107L59.6346 445.849L59.5574 445.587L59.482 445.32L59.4086 445.049L59.3371 444.774L59.2675 444.494L59.1998 444.209L59.134 443.92L59.0701 443.626L59.0081 443.326L58.9479 443.021L58.8896 442.71L58.8332 442.393L58.7787 442.07L58.726 441.741L58.6752 441.405L58.6262 441.062L58.5791 440.712L58.5339 440.353L58.4905 439.987L58.449 439.612L58.4093 439.227L58.3714 438.833L58.3355 438.428L58.3013 438.011L58.269 437.583L58.2385 437.141L58.2099 436.684L58.1831 436.212L58.1581 435.722L58.135 435.212L58.1137 434.68L58.0942 434.124L58.0766 433.539L58.0607 432.92L58.0468 432.262L58.0346 431.556L58.0243 430.789L58.0158 429.943L58.0091 428.987L58.0042 427.863L58.0012 426.43L58 423.957L58.0006 419.153L58.0031 417.548L58.0073 416.349L58.0134 415.348L58.0214 414.471L58.0311 413.681L58.0427 412.957L58.0561 412.285L58.0713 411.654L58.0884 411.059L58.1073 410.494L58.128 409.955L58.1505 409.439L58.1749 408.942L58.2011 408.465L58.2292 408.003L58.2591 407.557L58.2908 407.124L58.3244 406.704L58.3598 406.295L58.397 405.897L58.4361 405.51L58.4771 405.132L58.5199 404.762L58.5645 404.402L58.611 404.049L58.6594 403.703L58.7096 403.365L58.7617 403.034L58.8156 402.709L58.8714 402.39L58.9291 402.078L58.9887 401.771L59.0501 401.469L59.1135 401.173L59.1787 400.882L59.2458 400.596L59.3148 400.315L59.3857 400.038L59.4585 399.766L59.5332 399.498L59.6098 399.234L59.6883 398.975L59.7688 398.719L59.8511 398.467L59.9355 398.219L60.0217 397.975L60.1099 397.735L60.2 397.498L60.2922 397.264L60.3862 397.034L60.4823 396.807L60.5803 396.583L60.6803 396.363L60.7823 396.146L60.8863 395.932L60.9923 395.721L61.1003 395.512L61.2103 395.307L61.3224 395.105L61.4366 394.905L61.5527 394.709L61.671 394.515L61.7913 394.324L61.9137 394.135L62.0382 393.949L62.1648 393.766L62.2935 393.585L62.4244 393.407L62.5574 393.232L62.6926 393.059L62.8299 392.888L62.9695 392.72L63.1112 392.554L63.2552 392.391L63.4014 392.23L63.5498 392.071L63.7005 391.915L63.8535 391.761L64.0089 391.61L64.1665 391.46L64.3265 391.313L64.4888 391.168L64.6536 391.026L64.8208 390.885L64.9904 390.747L65.1624 390.611L65.337 390.477L65.5141 390.345L65.6937 390.216L65.8759 390.088L66.0607 389.963L66.2482 389.84L66.4383 389.719L66.6311 389.6L66.8267 389.483L67.0251 389.368L67.2263 389.255L67.4303 389.144L67.6373 389.035L67.8473 388.928L68.0602 388.823L68.2762 388.721L68.4953 388.62L68.7176 388.521L68.9432 388.424L69.172 388.329L69.4042 388.236L69.6398 388.146L69.879 388.057L70.1217 387.97L70.3681 387.884L70.6183 387.801L70.8723 387.72L71.1303 387.641L71.3923 387.563L71.6585 387.488L71.929 387.414L72.2039 387.343L72.4834 387.273L72.7676 387.205L73.0567 387.139L73.3508 387.075L73.6501 387.013L73.9549 386.953L74.2653 386.894L74.5815 386.838L74.9038 386.783L75.2326 386.73L75.568 386.679L75.9105 386.63L76.2603 386.583L76.6179 386.537L76.9837 386.494L77.3582 386.452L77.7419 386.412L78.1355 386.374L78.5397 386.338L78.9551 386.304L79.3828 386.271L79.8237 386.241L80.279 386.212L80.7502 386.185L81.2387 386.16L81.7467 386.137L82.2764 386.115L82.8308 386.096L83.4135 386.078L84.0291 386.062L84.6839 386.048L85.386 386.035L86.1475 386.025L86.9863 386.016L87.9317 386.01L89.0387 386.005L90.4374 386.001L92.716 386L97.6843 386L99.3437 386.003L100.565 386.007L101.578 386.013L102.463 386.021L103.258 386.03L103.987 386.042L104.663 386.055L105.297 386.07L105.895 386.087L106.462 386.106L107.003 386.126L107.521 386.149L108.019 386.173L108.498 386.199L108.961 386.227L109.408 386.257L109.842 386.288L110.263 386.322L110.673 386.357L111.071 386.394L111.46 386.433L111.838 386.474L112.208 386.516L112.57 386.561L112.923 386.607L113.269 386.655L113.608 386.706L113.94 386.757L114.265 386.811L114.584 386.867L114.898 386.924L115.205 386.984L115.507 387.045L115.803 387.108L116.095 387.173L116.381 387.24L116.663 387.309L116.94 387.38L117.213 387.453L117.481 387.527L117.745 387.604L118.005 387.682L118.261 387.762L118.513 387.844L118.761 387.929L119.005 388.015L119.246 388.103L119.484 388.193L119.717 388.285L119.948 388.379L120.175 388.475L120.399 388.572L120.619 388.672L120.837 388.774L121.051 388.878L121.263 388.984L121.471 389.092L121.677 389.201L121.879 389.313L122.079 389.427L122.276 389.543L122.47 389.661L122.661 389.782L122.85 389.904L123.036 390.028L123.22 390.155L123.4 390.283L123.579 390.414L123.754 390.547L123.928 390.682L124.098 390.819L124.267 390.958L124.433 391.1L124.596 391.244L124.757 391.39L124.916 391.538L125.073 391.688L125.227 391.841L125.378 391.996L125.528 392.154L125.675 392.314L125.82 392.476L125.963 392.64L126.104 392.807L126.242 392.977L126.378 393.149L126.512 393.323L126.644 393.5L126.774 393.679L126.902 393.861L127.027 394.046L127.15 394.233L127.272 394.423L127.391 394.616L127.508 394.811L127.623 395.009L127.736 395.21L127.847 395.414L127.956 395.621L128.063 395.83L128.168 396.043L128.271 396.259L128.372 396.478L128.471 396.7L128.568 396.925L128.663 397.154L128.756 397.386L128.847 397.621L128.936 397.86L129.024 398.102L129.109 398.348L129.192 398.598L129.273 398.852L129.353 399.11L129.43 399.371L129.506 399.637L129.58 399.907L129.652 400.182L129.721 400.461L129.789 400.745L129.856 401.033L129.92 401.327L129.982 401.626L130.043 401.93L130.101 402.24L130.158 402.556L130.213 402.878L130.266 403.206L130.317 403.541L130.366 403.883L130.413 404.232L130.459 404.589L130.503 404.954L130.545 405.328L130.584 405.711L130.623 406.104L130.659 406.507L130.693 406.922L130.726 407.348L130.757 407.788L130.786 408.242L130.813 408.712L130.838 409.199L130.861 409.705L130.883 410.233L130.903 410.786L130.921 411.366L130.937 411.979L130.951 412.63L130.964 413.328L130.974 414.084L130.983 414.916L130.99 415.851L130.995 416.942L130.998 418.309L131 420.44L131 422.5Z" fill="#F25B75"/>
<path fill-rule="evenodd" clip-rule="evenodd" d="M73.3733 447.971L73.3949 408.089L73.3949 408.087C73.3958 404.465 76.2616 401.368 80.0165 401.368H108.993C112.728 401.368 115.632 404.445 115.632 408.089V429.524C115.632 433.168 112.728 436.245 108.993 436.245H84.8329L73.3733 447.971ZM83.5079 433.097H108.993C110.922 433.097 112.484 431.498 112.484 429.524V408.089C112.484 406.115 110.922 404.516 108.993 404.516H80.0165C78.0874 404.516 76.5424 406.115 76.5424 408.089L76.525 440.242L83.5079 433.097ZM92.1536 424.272C92.1536 424.518 92.209 424.761 92.3164 424.988C92.4239 425.215 92.5814 425.422 92.7799 425.595C92.9785 425.769 93.2142 425.907 93.4736 426.001C93.733 426.095 94.011 426.143 94.2918 426.143C94.5726 426.143 94.8507 426.095 95.1101 426.001C95.3695 425.907 95.6052 425.769 95.8038 425.595C96.0023 425.422 96.1598 425.215 96.2673 424.988C96.3747 424.761 96.43 424.518 96.43 424.272H92.1536ZM95.6327 412.514C95.6327 412.577 95.6284 412.639 95.6199 412.7C95.7954 412.75 95.9681 412.811 96.1374 412.881C96.7211 413.122 97.2514 413.477 97.6982 413.924C98.1449 414.37 98.4993 414.901 98.7411 415.484C98.9828 416.068 99.1073 416.694 99.1073 417.325V421.335H99.2409C99.9052 421.335 100.444 421.873 100.444 422.537C100.444 423.202 99.9052 423.74 99.2409 423.74H89.3518C88.6875 423.74 88.149 423.202 88.149 422.537C88.149 421.873 88.6875 421.335 89.3518 421.335H89.4854V417.325C89.4854 416.694 89.6098 416.068 89.8516 415.484C90.0934 414.901 90.4478 414.37 90.8945 413.924C91.3412 413.477 91.8716 413.122 92.4553 412.881C92.6245 412.811 92.7973 412.75 92.9728 412.7C92.9643 412.639 92.96 412.577 92.96 412.514C92.96 411.776 93.5583 411.178 94.2963 411.178C95.0344 411.178 95.6327 411.776 95.6327 412.514Z" fill="white"/>
<path fill-rule="evenodd" clip-rule="evenodd" d="M242 517.5L241.999 521.15L241.996 522.662L241.992 523.821L241.985 524.799L241.977 525.66L241.967 526.438L241.955 527.153L241.942 527.818L241.926 528.443L241.909 529.033L241.89 529.593L241.869 530.129L241.846 530.642L241.821 531.135L241.794 531.61L241.766 532.069L241.736 532.513L241.704 532.944L241.67 533.362L241.634 533.769L241.597 534.165L241.557 534.551L241.516 534.928L241.473 535.295L241.428 535.655L241.381 536.007L241.333 536.351L241.282 536.688L241.23 537.018L241.176 537.342L241.119 537.66L241.061 537.971L241.002 538.278L240.94 538.578L240.876 538.873L240.811 539.164L240.743 539.449L240.674 539.73L240.603 540.006L240.53 540.277L240.455 540.544L240.378 540.807L240.299 541.066L240.218 541.321L240.136 541.572L240.051 541.82L239.964 542.063L239.876 542.303L239.785 542.54L239.693 542.773L239.599 543.002L239.502 543.229L239.404 543.452L239.304 543.672L239.201 543.888L239.097 544.102L238.991 544.313L238.882 544.52L238.772 544.725L238.66 544.927L238.545 545.126L238.429 545.322L238.31 545.516L238.189 545.707L238.067 545.895L237.942 546.08L237.815 546.263L237.686 546.443L237.555 546.621L237.421 546.796L237.286 546.969L237.148 547.139L237.008 547.307L236.866 547.472L236.722 547.635L236.575 547.795L236.426 547.954L236.275 548.11L236.122 548.263L235.966 548.414L235.808 548.563L235.648 548.71L235.485 548.855L235.32 548.997L235.152 549.137L234.982 549.275L234.81 549.41L234.635 549.544L234.457 549.675L234.277 549.805L234.095 549.932L233.91 550.057L233.722 550.18L233.531 550.3L233.338 550.419L233.142 550.536L232.943 550.65L232.741 550.763L232.537 550.874L232.329 550.982L232.119 551.089L231.906 551.193L231.689 551.296L231.469 551.396L231.247 551.494L231.021 551.591L230.791 551.686L230.558 551.778L230.322 551.869L230.083 551.957L229.839 552.044L229.592 552.129L229.342 552.212L229.087 552.293L228.828 552.372L228.566 552.449L228.299 552.524L228.027 552.597L227.752 552.668L227.472 552.738L227.187 552.805L226.897 552.871L226.602 552.935L226.302 552.997L225.996 553.057L225.685 553.115L225.368 553.171L225.044 553.226L224.714 553.278L224.378 553.329L224.034 553.378L223.683 553.425L223.324 553.47L222.957 553.513L222.581 553.554L222.196 553.594L221.801 553.631L221.395 553.667L220.978 553.701L220.548 553.733L220.105 553.764L219.647 553.792L219.173 553.819L218.682 553.844L218.17 553.867L217.637 553.888L217.078 553.907L216.491 553.925L215.869 553.94L215.208 553.954L214.497 553.966L213.725 553.976L212.871 553.985L211.905 553.991L210.763 553.996L209.292 553.999L206.53 554L201.998 553.999L200.442 553.997L199.263 553.992L198.274 553.986L197.405 553.978L196.621 553.968L195.902 553.956L195.233 553.943L194.606 553.927L194.013 553.91L193.45 553.891L192.913 553.87L192.398 553.848L191.904 553.823L191.427 553.797L190.967 553.768L190.522 553.738L190.09 553.707L189.671 553.673L189.263 553.637L188.866 553.6L188.479 553.561L188.102 553.52L187.733 553.477L187.373 553.432L187.021 553.385L186.676 553.337L186.339 553.286L186.008 553.234L185.683 553.18L185.365 553.124L185.053 553.066L184.747 553.006L184.446 552.945L184.15 552.881L183.859 552.816L183.573 552.749L183.292 552.68L183.016 552.609L182.744 552.536L182.477 552.461L182.213 552.384L181.954 552.305L181.699 552.225L181.447 552.142L181.2 552.058L180.956 551.971L180.716 551.883L180.479 551.793L180.246 551.7L180.016 551.606L179.789 551.51L179.566 551.412L179.346 551.312L179.129 551.209L178.915 551.105L178.704 550.999L178.496 550.891L178.291 550.781L178.089 550.669L177.89 550.554L177.693 550.438L177.499 550.319L177.308 550.199L177.12 550.076L176.935 549.952L176.751 549.825L176.571 549.696L176.393 549.565L176.218 549.432L176.045 549.297L175.875 549.159L175.707 549.019L175.541 548.877L175.378 548.733L175.217 548.587L175.059 548.438L174.903 548.287L174.749 548.134L174.598 547.979L174.448 547.821L174.302 547.661L174.157 547.498L174.014 547.333L173.874 547.166L173.736 546.996L173.6 546.824L173.467 546.649L173.335 546.472L173.206 546.292L173.078 546.109L172.953 545.924L172.83 545.737L172.709 545.546L172.59 545.353L172.473 545.158L172.359 544.959L172.246 544.758L172.135 544.553L172.026 544.346L171.92 544.136L171.815 543.923L171.713 543.706L171.612 543.487L171.513 543.264L171.417 543.039L171.322 542.81L171.229 542.577L171.138 542.341L171.05 542.102L170.963 541.859L170.878 541.612L170.795 541.362L170.714 541.107L170.635 540.849L170.557 540.587L170.482 540.32L170.409 540.049L170.337 539.774L170.268 539.494L170.2 539.209L170.134 538.92L170.07 538.626L170.008 538.326L169.948 538.021L169.89 537.71L169.833 537.393L169.779 537.07L169.726 536.741L169.675 536.405L169.626 536.062L169.579 535.712L169.534 535.353L169.491 534.987L169.449 534.612L169.409 534.227L169.371 533.833L169.335 533.428L169.301 533.011L169.269 532.583L169.239 532.141L169.21 531.684L169.183 531.212L169.158 530.722L169.135 530.212L169.114 529.68L169.094 529.124L169.077 528.539L169.061 527.92L169.047 527.262L169.035 526.556L169.024 525.789L169.016 524.943L169.009 523.987L169.004 522.863L169.001 521.43L169 518.957L169.001 514.153L169.003 512.548L169.007 511.349L169.013 510.348L169.021 509.471L169.031 508.681L169.043 507.957L169.056 507.285L169.071 506.654L169.088 506.059L169.107 505.494L169.128 504.955L169.151 504.439L169.175 503.942L169.201 503.465L169.229 503.003L169.259 502.557L169.291 502.124L169.324 501.704L169.36 501.295L169.397 500.897L169.436 500.51L169.477 500.132L169.52 499.762L169.565 499.402L169.611 499.049L169.659 498.703L169.71 498.365L169.762 498.034L169.816 497.709L169.871 497.39L169.929 497.078L169.989 496.771L170.05 496.469L170.113 496.173L170.179 495.882L170.246 495.596L170.315 495.315L170.386 495.038L170.458 494.766L170.533 494.498L170.61 494.234L170.688 493.975L170.769 493.719L170.851 493.467L170.935 493.219L171.022 492.975L171.11 492.735L171.2 492.498L171.292 492.264L171.386 492.034L171.482 491.807L171.58 491.583L171.68 491.363L171.782 491.146L171.886 490.932L171.992 490.721L172.1 490.512L172.21 490.307L172.322 490.105L172.437 489.905L172.553 489.709L172.671 489.515L172.791 489.324L172.914 489.135L173.038 488.949L173.165 488.766L173.294 488.585L173.424 488.407L173.557 488.232L173.693 488.059L173.83 487.888L173.969 487.72L174.111 487.554L174.255 487.391L174.401 487.23L174.55 487.071L174.701 486.915L174.854 486.761L175.009 486.61L175.167 486.46L175.326 486.313L175.489 486.168L175.654 486.026L175.821 485.885L175.99 485.747L176.162 485.611L176.337 485.477L176.514 485.345L176.694 485.216L176.876 485.088L177.061 484.963L177.248 484.84L177.438 484.719L177.631 484.6L177.827 484.483L178.025 484.368L178.226 484.255L178.43 484.144L178.637 484.035L178.847 483.928L179.06 483.823L179.276 483.721L179.495 483.62L179.718 483.521L179.943 483.424L180.172 483.329L180.404 483.236L180.64 483.146L180.879 483.057L181.122 482.97L181.368 482.884L181.618 482.801L181.872 482.72L182.13 482.641L182.392 482.563L182.659 482.488L182.929 482.414L183.204 482.343L183.483 482.273L183.768 482.205L184.057 482.139L184.351 482.075L184.65 482.013L184.955 481.953L185.265 481.894L185.581 481.838L185.904 481.783L186.233 481.73L186.568 481.679L186.91 481.63L187.26 481.583L187.618 481.537L187.984 481.494L188.358 481.452L188.742 481.412L189.136 481.374L189.54 481.338L189.955 481.304L190.383 481.271L190.824 481.241L191.279 481.212L191.75 481.185L192.239 481.16L192.747 481.137L193.276 481.115L193.831 481.096L194.413 481.078L195.029 481.062L195.684 481.048L196.386 481.035L197.148 481.025L197.986 481.016L198.932 481.01L200.039 481.005L201.437 481.001L203.716 481L208.684 481L210.344 481.003L211.565 481.007L212.578 481.013L213.463 481.021L214.258 481.03L214.987 481.042L215.663 481.055L216.297 481.07L216.895 481.087L217.462 481.106L218.003 481.126L218.521 481.149L219.019 481.173L219.498 481.199L219.961 481.227L220.408 481.257L220.842 481.288L221.263 481.322L221.673 481.357L222.071 481.394L222.46 481.433L222.838 481.474L223.208 481.516L223.57 481.561L223.923 481.607L224.269 481.655L224.608 481.706L224.94 481.757L225.265 481.811L225.584 481.867L225.898 481.924L226.205 481.984L226.507 482.045L226.803 482.108L227.095 482.173L227.381 482.24L227.663 482.309L227.94 482.38L228.213 482.453L228.481 482.527L228.745 482.604L229.005 482.682L229.261 482.762L229.513 482.844L229.761 482.929L230.005 483.015L230.246 483.103L230.484 483.193L230.717 483.285L230.948 483.379L231.175 483.475L231.399 483.572L231.619 483.672L231.837 483.774L232.051 483.878L232.263 483.984L232.471 484.092L232.677 484.201L232.879 484.313L233.079 484.427L233.276 484.543L233.47 484.661L233.661 484.782L233.85 484.904L234.036 485.028L234.22 485.155L234.4 485.283L234.579 485.414L234.754 485.547L234.928 485.682L235.098 485.819L235.267 485.958L235.433 486.1L235.596 486.244L235.757 486.39L235.916 486.538L236.073 486.688L236.227 486.841L236.378 486.996L236.528 487.154L236.675 487.314L236.82 487.476L236.963 487.64L237.104 487.807L237.242 487.977L237.378 488.149L237.512 488.323L237.644 488.5L237.774 488.679L237.902 488.861L238.027 489.046L238.15 489.233L238.272 489.423L238.391 489.616L238.508 489.811L238.623 490.009L238.736 490.21L238.847 490.414L238.956 490.621L239.063 490.83L239.168 491.043L239.271 491.259L239.372 491.478L239.471 491.7L239.568 491.925L239.663 492.154L239.756 492.386L239.847 492.621L239.936 492.86L240.024 493.102L240.109 493.348L240.192 493.598L240.273 493.852L240.353 494.11L240.43 494.371L240.506 494.637L240.58 494.907L240.652 495.182L240.721 495.461L240.789 495.745L240.856 496.033L240.92 496.327L240.982 496.626L241.043 496.93L241.101 497.24L241.158 497.556L241.213 497.878L241.266 498.206L241.317 498.541L241.366 498.883L241.413 499.232L241.459 499.589L241.503 499.954L241.545 500.328L241.584 500.711L241.623 501.104L241.659 501.507L241.693 501.922L241.726 502.348L241.757 502.788L241.786 503.242L241.813 503.712L241.838 504.199L241.861 504.705L241.883 505.233L241.903 505.786L241.921 506.366L241.937 506.979L241.951 507.63L241.964 508.328L241.974 509.084L241.983 509.916L241.99 510.851L241.995 511.942L241.998 513.309L242 515.44L242 517.5Z" fill="#9361FF"/>
<path d="M221.298 520.626C220.256 528.949 214.165 529.47 213.049 529.83C209.616 530.676 206.071 530.982 202.543 530.735C202.543 530.735 198.375 535.697 197.073 537.061C196.926 537.235 196.704 537.327 196.478 537.309C196.254 537.247 196.192 536.987 196.192 536.602V529.743C188.055 527.473 188.527 518.989 188.626 514.548C188.725 510.108 189.556 506.461 192.037 504.005C196.49 499.974 205.681 500.569 205.681 500.569C213.434 500.569 217.155 502.938 218.011 503.72C220.901 506.176 222.352 512.03 221.298 520.626ZM220.181 501.648C219.164 500.706 215.046 497.716 205.88 497.679C205.88 497.679 195.064 497.022 189.755 501.859C186.815 504.799 185.786 509.091 185.674 514.412C185.562 519.733 185.426 529.706 195.039 532.41V536.54C195.039 536.54 195.039 538.215 196.081 538.55C197.408 538.971 198.189 537.694 199.467 536.329C200.162 535.573 201.129 534.469 201.848 533.625C205.938 534.007 210.063 533.706 214.054 532.732C215.381 532.298 222.898 531.343 224.126 521.358C225.428 511.075 223.555 504.576 220.181 501.648" fill="white"/>
<path d="M209.653 514.701C209.375 514.702 209.145 514.483 209.132 514.205C209.257 512.841 208.253 511.633 206.889 511.508C206.768 511.497 206.648 511.495 206.527 511.501C206.24 511.484 206.02 511.237 206.037 510.949C206.054 510.661 206.302 510.442 206.589 510.459C208.513 510.4 210.121 511.912 210.18 513.836C210.184 513.951 210.182 514.066 210.174 514.18C210.188 514.468 209.966 514.712 209.679 514.726C209.679 514.726 209.678 514.726 209.678 514.726L209.653 514.701Z" fill="white"/>
<path d="M212.318 515.595C212.03 515.589 211.802 515.35 211.809 515.062C211.809 515.062 211.809 515.062 211.809 515.062C211.903 513.453 211.344 511.874 210.259 510.684C209.073 509.456 207.45 508.747 205.744 508.711C205.456 508.73 205.209 508.512 205.19 508.225C205.172 507.938 205.389 507.69 205.676 507.672C205.724 507.668 205.771 507.672 205.818 507.682C207.788 507.735 209.658 508.559 211.028 509.977C212.273 511.359 212.92 513.179 212.826 515.037C212.854 515.317 212.649 515.566 212.37 515.593C212.352 515.595 212.335 515.595 212.318 515.595Z" fill="white"/>
<path d="M215.029 516.654C214.741 516.654 214.508 516.421 214.508 516.133C214.655 513.372 213.644 510.674 211.717 508.691C209.884 506.9 207.408 505.921 204.845 505.974C204.558 505.975 204.324 505.743 204.323 505.455C204.322 505.167 204.555 504.933 204.842 504.933H204.845C207.676 504.885 210.409 505.97 212.436 507.947C214.544 510.118 215.665 513.06 215.537 516.084C215.537 516.371 215.304 516.605 215.016 516.605L215.029 516.654Z" fill="white"/>
<path d="M206.659 521.126C207.075 521.157 207.484 521.003 207.775 520.705L208.544 519.737C209.088 519.139 209.983 519.018 210.665 519.452C211.323 519.831 211.961 520.245 212.575 520.692C213.158 521.126 214.337 522.106 214.337 522.119C214.912 522.583 215.045 523.406 214.647 524.029C214.225 524.762 213.689 525.423 213.059 525.989C212.605 526.401 212.04 526.673 211.434 526.77C211.356 526.783 211.277 526.783 211.199 526.77C210.967 526.773 210.737 526.74 210.516 526.671C208.97 526.136 207.483 525.446 206.076 524.612C204.766 523.893 203.521 523.063 202.355 522.131C201.769 521.667 201.209 521.17 200.68 520.643H200.618C200.094 520.106 199.597 519.543 199.13 518.956C198.202 517.786 197.372 516.541 196.649 515.234C195.814 513.83 195.128 512.341 194.602 510.794C194.529 510.57 194.491 510.335 194.491 510.099C194.483 510.021 194.483 509.942 194.491 509.864C194.586 509.261 194.858 508.7 195.272 508.251C195.749 507.529 196.34 506.888 197.021 506.353C197.648 505.953 198.475 506.087 198.944 506.663C198.944 506.663 199.936 507.904 200.358 508.425C200.779 508.946 201.3 509.851 201.598 510.335C202.02 511.026 201.895 511.919 201.3 512.468L200.333 513.225C200.034 513.521 199.88 513.934 199.911 514.354C200.871 517.606 203.41 520.154 206.659 521.126Z" fill="white"/>
<line x1="207.956" y1="80.8204" x2="215.82" y2="100.044" stroke="black" stroke-width="3" stroke-linecap="round" stroke-dasharray="10 10"/>
<line x1="135.089" y1="144.631" x2="152.631" y2="156.911" stroke="black" stroke-width="3" stroke-linecap="round" stroke-dasharray="10 10"/>
<line x1="78.5" y1="264.5" x2="107.5" y2="264.5" stroke="black" stroke-width="3" stroke-linecap="round" stroke-dasharray="10 10"/>
<path d="M135.5 419.5L153.974 399.371" stroke="black" stroke-width="3" stroke-linecap="round" stroke-dasharray="10 10"/>
<line x1="206.029" y1="476.114" x2="213.114" y2="453.971" stroke="black" stroke-width="3" stroke-linecap="round" stroke-dasharray="10 10"/>
</svg>
