<svg width="56" height="59" viewBox="0 0 56 59" fill="none" xmlns="http://www.w3.org/2000/svg">
<path d="M1 45.3805C1 42.6191 3.23858 40.3805 6 40.3805C8.76142 40.3805 11 42.6191 11 45.3805V53.3805C11 56.1419 8.76142 58.3805 6 58.3805C3.23858 58.3805 1 56.1419 1 53.3805V45.3805Z" fill="#272525"/>
<path d="M16 31.3805C16 28.6191 18.2386 26.3805 21 26.3805C23.7614 26.3805 26 28.6191 26 31.3805V53.3805C26 56.1419 23.7614 58.3805 21 58.3805C18.2386 58.3805 16 56.1419 16 53.3805V31.3805Z" fill="#FC537C"/>
<path d="M31 38.3805C31 35.6191 33.2386 33.3805 36 33.3805C38.7614 33.3805 41 35.6191 41 38.3805V53.3805C41 56.1419 38.7614 58.3805 36 58.3805C33.2386 58.3805 31 56.1419 31 53.3805V38.3805Z" fill="#272525"/>
<path d="M46 19.3805C46 16.6191 48.2386 14.3805 51 14.3805C53.7614 14.3805 56 16.6191 56 19.3805V53.3805C56 56.1419 53.7614 58.3805 51 58.3805C48.2386 58.3805 46 56.1419 46 53.3805V19.3805Z" fill="#FC537C"/>
<path fill-rule="evenodd" clip-rule="evenodd" d="M0.179287 26.644C-0.136185 26.1907 -0.0244406 25.5675 0.428875 25.252L18.795 12.4706C19.1585 12.2176 19.6452 12.2339 19.991 12.5106L24.0686 15.7734L41.538 2.99837L35.0301 1.98827C34.4844 1.90356 34.1106 1.39247 34.1953 0.846725C34.28 0.300975 34.7911 -0.0727739 35.3369 0.0119334L44.2304 1.39232C44.7761 1.47703 45.1499 1.98812 45.0652 2.53386L43.6848 11.4274C43.6001 11.9731 43.089 12.3469 42.5432 12.2622C41.9975 12.1775 41.6237 11.6664 41.7085 11.1206L42.7186 4.61276L24.6315 17.8395C24.267 18.1061 23.769 18.0952 23.4164 17.8131L19.3245 14.5388L1.5713 26.8936C1.11798 27.2091 0.494759 27.0973 0.179287 26.644Z" fill="#272525"/>
</svg>
