<svg width="579" height="600" viewBox="0 0 579 600" fill="none" xmlns="http://www.w3.org/2000/svg">
<rect x="325" y="420" width="254" height="180" rx="55" fill="#D3CFCD"/>
<rect x="82" y="95" width="497" height="165" rx="55" fill="#D3CFCD"/>
<path fill-rule="evenodd" clip-rule="evenodd" d="M285.228 101.057L487.46 303.291C493.135 308.967 496.324 316.664 496.324 324.69V598.24H502.127V324.69C502.127 315.125 498.328 305.951 491.564 299.187L289.332 96.9528L285.228 101.057Z" fill="#E51A4B"/>
<path fill-rule="evenodd" clip-rule="evenodd" d="M423.183 475.006C431.221 475.006 438.929 478.203 444.607 483.894L497.48 536.889L501.589 532.79L448.715 479.795C441.949 473.013 432.763 469.202 423.183 469.202H272.759V475.006H423.183Z" fill="#E51A4B"/>
<path fill-rule="evenodd" clip-rule="evenodd" d="M408.923 332.438C416.975 332.438 424.696 335.648 430.376 341.356L497.477 408.796L501.591 404.703L434.49 337.262C427.721 330.459 418.52 326.634 408.923 326.634L132.758 326.634V332.438L408.923 332.438Z" fill="#E51A4B"/>
<path fill-rule="evenodd" clip-rule="evenodd" d="M308.259 219.003L424.25 334.993L428.354 330.889L312.363 214.899L308.259 219.003Z" fill="#E51A4B"/>
<rect x="255" y="455" width="34" height="34" fill="#E51A4B"/>
<rect x="286" y="194" width="34" height="34" fill="#E51A4B"/>
<rect x="113" y="313" width="34" height="34" fill="#E51A4B"/>
<rect x="263" y="73" width="34" height="34" fill="#E51A4B"/>
<path d="M357.711 57.8554C357.711 58.9408 357.955 60.0155 358.43 61.0183C358.905 62.0211 359.6 62.9322 360.478 63.6997C361.355 64.4672 362.396 65.076 363.542 65.4913C364.688 65.9067 365.916 66.1205 367.157 66.1205C368.397 66.1205 369.625 65.9067 370.771 65.4913C371.917 65.076 372.959 64.4672 373.836 63.6997C374.713 62.9322 375.409 62.0211 375.883 61.0183C376.358 60.0155 376.603 58.9408 376.603 57.8554L357.711 57.8554Z" fill="black"/>
<path d="M373.004 6.72376C373.041 6.45572 373.06 6.18192 373.06 5.90361C373.06 2.64314 370.417 0 367.157 0C363.896 0 361.253 2.64314 361.253 5.90361C361.253 6.18192 361.272 6.45572 361.31 6.72376C360.534 6.94555 359.771 7.21168 359.023 7.5214C356.445 8.58947 354.102 10.155 352.128 12.1285C350.155 14.102 348.589 16.4449 347.521 19.0235C346.453 21.602 345.904 24.3656 345.904 27.1566V44.8675H345.313C342.379 44.8675 340 47.2463 340 50.1807C340 53.1152 342.379 55.494 345.313 55.494H389C391.934 55.494 394.313 53.1152 394.313 50.1807C394.313 47.2463 391.934 44.8675 389 44.8675H388.41V27.1566C388.41 24.3656 387.86 21.602 386.792 19.0234C385.724 16.4449 384.158 14.102 382.185 12.1285C380.211 10.155 377.868 8.58947 375.29 7.5214C374.542 7.21168 373.779 6.94555 373.004 6.72376Z" fill="black"/>
<path fill-rule="evenodd" clip-rule="evenodd" d="M345.536 44.8675C345.536 44.2154 346.064 43.6868 346.716 43.6868H387.713C388.365 43.6868 388.893 44.2154 388.893 44.8675C388.893 45.5196 388.365 46.0482 387.713 46.0482H346.716C346.064 46.0482 345.536 45.5196 345.536 44.8675Z" fill="#FC537C"/>
<path d="M189 544.084C189 540.172 192.172 537 196.084 537H248.036C251.949 537 255.12 540.172 255.12 544.084V573.602C255.12 577.515 251.949 580.687 248.036 580.687H196.084C192.172 580.687 189 577.515 189 573.602V544.084Z" fill="black"/>
<path d="M190.53 539.686L220.407 557.902C221.945 558.839 223.883 558.821 225.402 557.853L253.702 539.832C252.41 538.112 250.353 537 248.036 537H196.084C193.834 537 191.828 538.05 190.53 539.686Z" fill="#FC537C"/>
<path d="M49.8592 235C54.7186 235 58.6579 238.939 58.6579 243.799V264.329C58.6579 269.188 54.7186 273.127 49.8592 273.127H19.0487L10.1015 281.926H8.79889V273.127C3.93953 273.127 0 269.188 0 264.329V243.799C0 238.939 3.9393 235 8.79866 235H49.8592Z" fill="black"/>
<path fill-rule="evenodd" clip-rule="evenodd" d="M8.79883 243.799C8.79883 242.989 9.45538 242.332 10.2653 242.332L48.3927 242.332C49.2026 242.332 49.8592 242.989 49.8592 243.799C49.8592 244.609 49.2026 245.265 48.3927 245.265L10.2653 245.265C9.45538 245.265 8.79883 244.609 8.79883 243.799Z" fill="#FC537C"/>
<path fill-rule="evenodd" clip-rule="evenodd" d="M8.79883 252.597C8.79883 251.787 9.45538 251.131 10.2653 251.131H48.3927C49.2026 251.131 49.8592 251.787 49.8592 252.597C49.8592 253.407 49.2026 254.064 48.3927 254.064H10.2653C9.45538 254.064 8.79883 253.407 8.79883 252.597Z" fill="#FC537C"/>
<path fill-rule="evenodd" clip-rule="evenodd" d="M8.79883 261.396C8.79883 260.586 9.45538 259.929 10.2653 259.929H48.3927C49.2026 259.929 49.8592 260.586 49.8592 261.396C49.8592 262.206 49.2026 262.862 48.3927 262.862H10.2653C9.45538 262.862 8.79883 262.206 8.79883 261.396Z" fill="#FC537C"/>
<path d="M32.2615 251.131C27.4022 251.131 23.4629 255.07 23.4629 259.93V280.46C23.4629 285.319 27.4022 289.258 32.2615 289.258H63.0721L72.0193 298.057H73.3219V289.258C78.1807 289.258 82.1194 285.319 82.1194 280.46V259.93C82.1194 255.07 78.1801 251.131 73.3207 251.131H32.2615Z" fill="#FC537C"/>
<path fill-rule="evenodd" clip-rule="evenodd" d="M32.2617 261.396C32.2617 260.586 32.9183 259.929 33.7282 259.929L71.8556 259.929C72.6655 259.929 73.3221 260.586 73.3221 261.396C73.3221 262.206 72.6655 262.862 71.8556 262.862L33.7282 262.862C32.9183 262.862 32.2617 262.206 32.2617 261.396Z" fill="black"/>
<path fill-rule="evenodd" clip-rule="evenodd" d="M32.2617 270.195C32.2617 269.385 32.9183 268.728 33.7282 268.728H71.8556C72.6655 268.728 73.3221 269.385 73.3221 270.195C73.3221 271.004 72.6655 271.661 71.8556 271.661H33.7282C32.9183 271.661 32.2617 271.004 32.2617 270.195Z" fill="black"/>
<path fill-rule="evenodd" clip-rule="evenodd" d="M32.2617 278.993C32.2617 278.183 32.9183 277.527 33.7282 277.527H71.8556C72.6655 277.527 73.3221 278.183 73.3221 278.993C73.3221 279.803 72.6655 280.46 71.8556 280.46H33.7282C32.9183 280.46 32.2617 279.803 32.2617 278.993Z" fill="black"/>
<path d="M88.0361 442.711C91.9487 442.711 95.1205 445.883 95.1205 449.795V479.313C95.1205 483.226 91.9487 486.398 88.0361 486.398H49.0436L49.0723 486.398L38.6234 497.024H37.2651V486.398L36.0843 486.398C32.1718 486.398 29 483.226 29 479.313V449.795C29 445.883 32.1718 442.711 36.0843 442.711H88.0361Z" fill="black"/>
<path d="M63.6221 464.728C63.4886 464.864 63.3189 464.957 63.134 464.996L51.3285 467.485C50.6456 467.629 50.0411 467.015 50.1829 466.322L52.6344 454.336C52.6728 454.148 52.7644 453.976 52.898 453.84L78.3061 428.044C78.6844 427.66 79.2978 427.66 79.6762 428.044L89.0302 437.541C89.4086 437.925 89.4086 438.548 89.0302 438.932L63.6221 464.728Z" fill="#FC537C"/>
<path d="M80.5703 425.288L80.4059 425.455C80.0276 425.839 80.0276 426.462 80.4059 426.846L89.76 436.343C90.1383 436.727 90.7517 436.727 91.1301 436.343L91.2945 436.176C91.6728 435.792 91.6728 435.169 91.2945 434.785L81.9404 425.288C81.5621 424.904 80.9487 424.904 80.5703 425.288Z" fill="black"/>
<path fill-rule="evenodd" clip-rule="evenodd" d="M51.5068 451.413C51.9668 450.95 52.7135 450.949 53.1746 451.41L66.2531 464.489C66.7142 464.95 66.715 465.699 66.255 466.161C65.795 466.623 65.0483 466.624 64.5873 466.163L51.5087 453.084C51.0477 452.623 51.0468 451.875 51.5068 451.413Z" fill="black"/>
</svg>
