<svg width="77" height="113" viewBox="0 0 77 113" fill="none" xmlns="http://www.w3.org/2000/svg">
<path fill-rule="evenodd" clip-rule="evenodd" d="M77 0H30.8002L0 30.67V76.672H76.9991L77 0ZM61.5994 61.337H46.1998V46.0029H30.8002V61.337H15.4005V15.335H30.8002V30.6688H46.1998V15.335H61.5994V61.337Z" fill="black"/>
<path fill-rule="evenodd" clip-rule="evenodd" d="M0 15.3344H15.3999V0H0V15.3344Z" fill="#E51A4B"/>
<path d="M0 112.732H5.25014V94.7021H0V112.732Z" fill="black"/>
<path d="M0 91.821H5.25014V86.5923H0V91.821Z" fill="#FAFAFB"/>
<path d="M25.6018 86.5923V96.5119H14.8989V86.5923H9.44678V112.731H14.8989V101.103H25.6018V112.731H31.0539V86.5923H25.6018Z" fill="black"/>
<path d="M48.2061 94.7021V103.617C48.2061 106.934 46.4565 108.476 44.0333 108.476C41.7109 108.476 40.3647 107.135 40.3647 104.119V94.7021H35.1143V104.89C35.1143 110.453 38.3116 113 42.8551 113C45.0763 113 47.0955 112.162 48.4756 110.587V112.732H53.4568V94.7021H48.2061Z" fill="black"/>
<path d="M67.9784 94.4338C65.7233 94.4338 63.8725 95.1377 62.5263 96.6121V86.5923H57.2759V112.731H62.2907V110.654C63.603 112.229 65.5552 113 67.9784 113C73.0605 113 76.9983 109.38 76.9983 103.717C76.9983 98.0533 73.0605 94.4338 67.9784 94.4338ZM67.0698 108.71C64.4446 108.71 62.4591 106.834 62.4591 103.717C62.4591 100.6 64.4446 98.7234 67.0698 98.7234C69.6947 98.7234 71.6809 100.6 71.6809 103.717C71.6809 106.834 69.6947 108.71 67.0698 108.71Z" fill="black"/>
</svg>
