<svg width="52" height="57" viewBox="0 0 52 57" fill="none" xmlns="http://www.w3.org/2000/svg">
<path d="M45 20.6315C45 27.9037 39.154 33.7991 31.9426 33.7991C24.7312 33.7991 18.8853 27.9037 18.8853 20.6315C18.8853 13.3592 24.7312 7.46387 31.9426 7.46387C39.154 7.46387 45 13.3592 45 20.6315Z" fill="#FC537C"/>
<path d="M33.1147 20.6315C33.1147 27.9037 27.2688 33.7991 20.0574 33.7991C12.846 33.7991 7 27.9037 7 20.6315C7 13.3592 12.846 7.46387 20.0574 7.46387C27.2688 7.46387 33.1147 13.3592 33.1147 20.6315Z" fill="#FC537C"/>
<path d="M44 29.9824C44 39.9235 35.9411 47.9824 26 47.9824C16.0589 47.9824 8 39.9235 8 29.9824C8 20.0413 16.0589 11.9824 26 11.9824C35.9411 11.9824 44 20.0413 44 29.9824Z" fill="#272525"/>
<path d="M21.6209 26.5772C21.6209 27.6519 20.7497 28.5231 19.675 28.5231C18.6002 28.5231 17.729 27.6519 17.729 26.5772C17.729 25.5025 18.6002 24.6312 19.675 24.6312C20.7497 24.6312 21.6209 25.5025 21.6209 26.5772Z" fill="#FC537C"/>
<path d="M34.2703 26.5772C34.2703 27.6519 33.3991 28.5231 32.3244 28.5231C31.2496 28.5231 30.3784 27.6519 30.3784 26.5772C30.3784 25.5025 31.2496 24.6312 32.3244 24.6312C33.3991 24.6312 34.2703 25.5025 34.2703 26.5772Z" fill="#FC537C"/>
<path d="M0 23C0 20.7909 1.79086 19 4 19H5C7.20914 19 9 20.7909 9 23V32C9 34.2091 7.20914 36 5 36H4C1.79086 36 0 34.2091 0 32V23Z" fill="#272525"/>
<path d="M43 23C43 20.7909 44.7909 19 47 19H48C50.2091 19 52 20.7909 52 23V32C52 34.2091 50.2091 36 48 36H47C44.7909 36 43 34.2091 43 32V23Z" fill="#272525"/>
<path fill-rule="evenodd" clip-rule="evenodd" d="M20.8187 35.4256C20.5026 34.975 19.8813 34.8644 19.429 35.1791C18.9757 35.4945 18.8638 36.1177 19.1792 36.571L20.0001 36C19.1792 36.571 19.1794 36.5714 19.1797 36.5718L19.1803 36.5726L19.1815 36.5744L19.1847 36.5789L19.1934 36.5911C19.2002 36.6007 19.2092 36.613 19.2203 36.628C19.2425 36.658 19.2732 36.6986 19.3123 36.7482C19.3904 36.8473 19.5028 36.983 19.6488 37.143C19.9402 37.4621 20.3704 37.8828 20.9369 38.3031C22.0705 39.1441 23.7745 40 26.0001 40C28.2257 40 29.9297 39.1441 31.0633 38.3031C31.6297 37.8828 32.0599 37.4621 32.3513 37.143C32.4974 36.983 32.6097 36.8473 32.6879 36.7482C32.727 36.6986 32.7577 36.658 32.7799 36.628C32.791 36.613 32.7999 36.6007 32.8068 36.5911L32.8155 36.5789L32.8186 36.5744L32.8199 36.5726L32.8205 36.5718C32.8207 36.5714 32.821 36.571 32.0342 36.0237L32.821 36.571C33.1364 36.1177 33.0245 35.4945 32.5712 35.1791C32.118 34.8638 31.4952 34.9754 31.1797 35.4282L31.1801 35.4276L31.1808 35.4266L31.1812 35.426L31.1715 35.4393C31.1612 35.4532 31.1432 35.4771 31.1176 35.5095C31.0664 35.5745 30.9851 35.6732 30.8744 35.7944C30.6522 36.0378 30.3161 36.3671 29.8716 36.6969C28.9835 37.3558 27.6875 38 26.0001 38C24.3127 38 23.0167 37.3558 22.1285 36.6969C21.6841 36.3671 21.348 36.0378 21.1258 35.7944C21.0151 35.6732 20.9338 35.5745 20.8825 35.5095C20.8569 35.4771 20.839 35.4532 20.8287 35.4393L20.819 35.426" fill="#FC537C"/>
<path d="M17.1463 18.9864C25.2921 18.0018 26.2301 12.6383 26.2295 10.5222H12.3726L8.5993 22.5607C8.39309 22.9577 8.39309 23.2186 8.39309 23.2186L8.5993 22.5607C9.11242 21.5726 10.9024 19.7412 17.1463 18.9864Z" fill="#FC537C"/>
<path d="M35.9622 19.1559C27.7272 18.2107 26.229 13.1675 26.229 9.99337L32.5243 9.46436L38.8193 10.5224L43.4004 21.6449C44.2284 22.5003 44.0487 23.2187 44.0487 23.2187L43.4004 21.6449C42.5232 20.7386 40.5146 19.6784 35.9622 19.1559Z" fill="#FC537C"/>
<path fill-rule="evenodd" clip-rule="evenodd" d="M5.25707 19.0081C7.34642 19.1407 9 20.8772 9 23V32C9 34.2091 7.20914 36 5 36H4C1.79086 36 0 34.2091 0 32V23C0 21.0579 1.38406 19.4391 3.21961 19.0761C4.77503 8.73375 14.4022 0 26 0C37.5978 0 47.225 8.73375 48.7804 19.0761C50.6159 19.4391 52 21.0579 52 23V32C52 33.8639 50.7252 35.43 48.9999 35.874C49.0217 38.907 47.5151 42.5506 44.9323 45.6656C42.0286 49.1675 37.6505 52.1493 32.1509 52.9885C31.6049 53.0719 31.0948 52.6968 31.0115 52.1508C30.9282 51.6049 31.3032 51.0947 31.8492 51.0114C36.7941 50.2569 40.7533 47.5721 43.3927 44.389C45.7607 41.5332 46.9779 38.3911 46.9996 36C44.7906 35.9998 43 34.209 43 32V23C43 20.8772 44.6536 19.1407 46.7429 19.0081C45.1638 9.82312 36.4982 2 26 2C15.5018 2 6.83622 9.82312 5.25707 19.0081ZM47.9586 34C47.9482 33.9998 47.9378 33.9998 47.9274 34H47C45.8954 34 45 33.1046 45 32V23C45 21.8954 45.8954 21 47 21H48C49.1046 21 50 21.8954 50 23V32C50 33.1046 49.1046 34 48 34H47.9586ZM4 21H5C6.10457 21 7 21.8954 7 23V32C7 33.1046 6.10457 34 5 34H4C2.89543 34 2 33.1046 2 32V23C2 21.8954 2.89543 21 4 21Z" fill="#FC537C"/>
<path d="M36.3509 53.0702C36.3509 55.2406 34.5914 57 32.421 57C30.2507 57 28.4912 55.2406 28.4912 53.0702C28.4912 50.8998 30.2507 49.1404 32.421 49.1404C34.5914 49.1404 36.3509 50.8998 36.3509 53.0702Z" fill="#272525"/>
</svg>
