<svg width="57" height="57" viewBox="0 0 57 57" fill="none" xmlns="http://www.w3.org/2000/svg">
<path fill-rule="evenodd" clip-rule="evenodd" d="M57 28.5L56.9993 31.35L56.9971 32.5304L56.9936 33.436L56.9886 34.1992L56.9822 34.8715L56.9743 35.4789L56.9651 36.0373L56.9544 36.5567L56.9423 37.0442L56.9287 37.505L56.9137 37.9428L56.8973 38.3608L56.8795 38.7613L56.8602 39.1463L56.8395 39.5173L56.8174 39.8757L56.7938 40.2225L56.7688 40.5589L56.7424 40.8855L56.7145 41.2031L56.6852 41.5124L56.6544 41.8138L56.6222 42.1079L56.5886 42.3951L56.5535 42.6758L56.517 42.9504L56.479 43.2191L56.4395 43.4823L56.3986 43.7402L56.3563 43.9931L56.3125 44.2411L56.2672 44.4846L56.2204 44.7236L56.1722 44.9583L56.1226 45.1889L56.0714 45.4155L56.0188 45.6383L55.9647 45.8574L55.9091 46.0729L55.852 46.285L55.7934 46.4936L55.7334 46.699L55.6718 46.9012L55.6088 47.1002L55.5442 47.2963L55.4781 47.4894L55.4105 47.6796L55.3414 47.867L55.2708 48.0516L55.1986 48.2336L55.1249 48.4129L55.0497 48.5896L54.9729 48.7637L54.8946 48.9354L54.8147 49.1047L54.7332 49.2715L54.6502 49.436L54.5656 49.5982L54.4794 49.758L54.3917 49.9157L54.3023 50.0711L54.2113 50.2243L54.1187 50.3754L54.0245 50.5243L53.9287 50.6712L53.8312 50.816L53.7321 50.9588L53.6313 51.0995L53.5289 51.2382L53.4247 51.375L53.3189 51.5098L53.2114 51.6427L53.1022 51.7737L52.9912 51.9028L52.8786 52.03L52.7641 52.1554L52.6479 52.2789L52.53 52.4006L52.4102 52.5205L52.2887 52.6386L52.1653 52.7549L52.0401 52.8695L51.913 52.9823L51.784 53.0934L51.6532 53.2028L51.5205 53.3104L51.3858 53.4164L51.2492 53.5206L51.1106 53.6232L50.97 53.7241L50.8274 53.8234L50.6828 53.921L50.5361 54.017L50.3873 54.1113L50.2364 54.204L50.0834 54.2951L49.9281 54.3846L49.7707 54.4725L49.611 54.5588L49.449 54.6435L49.2847 54.7267L49.118 54.8083L48.949 54.8883L48.7775 54.9667L48.6035 55.0436L48.427 55.119L48.2479 55.1928L48.0662 55.2651L47.8818 55.3358L47.6946 55.4051L47.5046 55.4728L47.3118 55.539L47.116 55.6037L46.9171 55.6668L46.7152 55.7285L46.5101 55.7887L46.3017 55.8474L46.0899 55.9046L45.8747 55.9603L45.6559 56.0145L45.4334 56.0673L45.2071 56.1185L44.9768 56.1683L44.7424 56.2167L44.5038 56.2635L44.2607 56.3089L44.013 56.3528L43.7605 56.3953L43.503 56.4363L43.2403 56.4759L42.972 56.514L42.6979 56.5506L42.4177 56.5859L42.131 56.6196L41.8375 56.6519L41.5366 56.6828L41.228 56.7122L40.9111 56.7402L40.5852 56.7668L40.2497 56.7919L39.9037 56.8156L39.5463 56.8378L39.1763 56.8586L38.7925 56.878L38.3933 56.896L37.9768 56.9125L37.5406 56.9276L37.0818 56.9412L36.5966 56.9535L36.08 56.9643L35.525 56.9737L34.922 56.9816L34.2557 56.9881L33.501 56.9932L32.6098 56.9969L31.4613 56.9992L29.3042 57L25.7658 56.9994L24.5507 56.9974L23.6299 56.9939L22.8577 56.989L22.1794 56.9827L21.5674 56.975L21.0056 56.9659L20.4834 56.9553L19.9935 56.9433L19.5308 56.9299L19.0912 56.915L18.6718 56.8987L18.2699 56.881L17.8838 56.8618L17.5117 56.8412L17.1524 56.8192L16.8047 56.7958L16.4675 56.7709L16.1402 56.7446L15.8218 56.7168L15.512 56.6876L15.2099 56.6569L14.9153 56.6249L14.6275 56.5913L14.3463 56.5564L14.0712 56.5199L13.8021 56.4821L13.5384 56.4427L13.2801 56.4019L13.0268 56.3597L12.7784 56.316L12.5346 56.2708L12.2953 56.2242L12.0602 56.1761L11.8293 56.1266L11.6024 56.0755L11.3793 56.023L11.1599 55.969L10.9441 55.9136L10.7318 55.8566L10.5229 55.7981L10.3172 55.7382L10.1148 55.6768L9.91547 55.6138L9.71919 55.5494L9.52587 55.4834L9.33543 55.416L9.14782 55.347L8.96297 55.2765L8.78082 55.2044L8.60131 55.1308L8.42439 55.0557L8.25002 54.9791L8.07813 54.9009L7.9087 54.8211L7.74166 54.7398L7.577 54.6569L7.41465 54.5724L7.25459 54.4864L7.09679 54.3987L6.9412 54.3095L6.78779 54.2186L6.63654 54.1262L6.48742 54.0321L6.34039 53.9364L6.19543 53.8391L6.05252 53.7401L5.91162 53.6394L5.77272 53.5371L5.6358 53.4331L5.50082 53.3274L5.36778 53.22L5.23665 53.111L5.10741 53.0001L4.98004 52.8876L4.85453 52.7733L4.73086 52.6573L4.60901 52.5394L4.48897 52.4198L4.37071 52.2984L4.25424 52.1752L4.13953 52.0501L4.02657 51.9232L3.91534 51.7944L3.80585 51.6637L3.69806 51.5311L3.59197 51.3966L3.48758 51.2601L3.38486 51.1217L3.28382 50.9813L3.18443 50.8389L3.08669 50.6944L2.99059 50.5479L2.89613 50.3993L2.80328 50.2485L2.71206 50.0956L2.62243 49.9406L2.53441 49.7833L2.44798 49.6238L2.36313 49.462L2.27986 49.2979L2.19816 49.1314L2.11802 48.9625L2.03944 48.7913L1.96242 48.6175L1.88693 48.4412L1.81299 48.2623L1.74059 48.0808L1.66971 47.8966L1.60036 47.7096L1.53253 47.5199L1.46622 47.3272L1.40141 47.1317L1.33811 46.9331L1.27632 46.7314L1.21602 46.5265L1.15721 46.3184L1.0999 46.1069L1.04407 45.892L0.989727 45.6735L0.936863 45.4512L0.885476 45.2252L0.835563 44.9953L0.78712 44.7612L0.740145 44.5229L0.694635 44.2802L0.650587 44.0329L0.608 43.7808L0.566869 43.5237L0.527194 43.2614L0.488972 42.9936L0.4522 42.7199L0.416877 42.4402L0.383001 42.1541L0.35057 41.8611L0.319582 41.5609L0.290036 41.2529L0.261929 40.9367L0.235261 40.6115L0.210031 40.2768L0.186235 39.9317L0.163875 39.5752L0.142947 39.2063L0.123452 38.8236L0.105389 38.4257L0.0887552 38.0107L0.0735513 37.5762L0.059776 37.1193L0.0474288 36.6363L0.036509 36.1224L0.027016 35.5708L0.0189494 34.972L0.0123087 34.3115L0.00709366 33.5652L0.00330397 32.6877L0.000939459 31.5685L0 29.6374L0.000485548 25.8868L0.00239613 24.6334L0.00573184 23.6968L0.0104928 22.9153L0.0166794 22.2307L0.0242917 21.6142L0.0333304 21.0488L0.0437956 20.5237L0.0556881 20.0315L0.0690084 19.5668L0.0837572 19.1255L0.0999352 18.7045L0.117543 18.3013L0.136582 17.914L0.157053 17.5409L0.178957 17.1806L0.202295 16.8319L0.227069 16.494L0.253279 16.1659L0.280927 15.8469L0.310014 15.5363L0.340543 15.2337L0.372514 14.9384L0.40593 14.6502L0.440792 14.3684L0.477102 14.0929L0.514862 13.8233L0.554074 13.5592L0.59474 13.3005L0.636864 13.0468L0.680446 12.798L0.72549 12.5539L0.771998 12.3142L0.819973 12.0788L0.869418 11.8475L0.920335 11.6203L0.972728 11.3969L1.0266 11.1772L1.08195 10.9611L1.13879 10.7485L1.19712 10.5394L1.25695 10.3335L1.31826 10.1308L1.38108 9.93122L1.44541 9.73469L1.51124 9.54114L1.57859 9.35047L1.64746 9.16264L1.71785 8.97757L1.78976 8.7952L1.86322 8.61549L1.93821 8.43837L2.01474 8.26379L2.09282 8.09171L2.17246 7.92208L2.25366 7.75486L2.33643 7.59L2.42078 7.42748L2.50671 7.26724L2.59422 7.10925L2.68333 6.95349L2.77405 6.79991L2.86638 6.64849L2.96033 6.4992L3.0559 6.352L3.15312 6.20688L3.25198 6.0638L3.3525 5.92275L3.45468 5.78369L3.55854 5.64661L3.66408 5.51148L3.77133 5.37829L3.88028 5.247L3.99095 5.11761L4.10336 4.9901L4.21751 4.86444L4.33342 4.74062L4.4511 4.61862L4.57058 4.49844L4.69185 4.38004L4.81494 4.26343L4.93986 4.14858L5.06664 4.03548L5.19528 3.92412L5.32581 3.81448L5.45824 3.70656L5.5926 3.60034L5.7289 3.49581L5.86716 3.39296L6.00742 3.29178L6.14969 3.19226L6.29399 3.09439L6.44036 2.99817L6.58881 2.90357L6.73938 2.8106L6.8921 2.71924L7.04699 2.62949L7.20408 2.54134L7.36342 2.45478L7.52503 2.36981L7.68896 2.28641L7.85523 2.20458L8.0239 2.12432L8.195 2.04562L8.36857 1.96847L8.54468 1.89287L8.72335 1.8188L8.90466 1.74628L9.08864 1.67528L9.27537 1.60581L9.4649 1.53786L9.65729 1.47142L9.85263 1.40649L10.051 1.34308L10.2524 1.28116L10.457 1.22074L10.6649 1.16182L10.8761 1.10439L11.0908 1.04844L11.309 0.993978L11.5309 0.940997L11.7566 0.889492L11.9862 0.839461L12.22 0.790902L12.4579 0.74381L12.7003 0.698183L12.9472 0.654019L13.1989 0.611315L13.4556 0.570069L13.7175 0.530278L13.9849 0.49194L14.258 0.455053L14.5372 0.419615L14.8229 0.385624L15.1153 0.353077L15.4149 0.321975L15.7223 0.292313L16.0378 0.264092L16.3622 0.23731L16.6962 0.211965L17.0404 0.188055L17.396 0.16558L17.7638 0.144539L18.1453 0.12493L18.542 0.106752L18.9556 0.0900049L19.3884 0.0746871L19.8434 0.0607981L20.3241 0.0483372L20.8354 0.0373037L21.3836 0.0276971L21.9782 0.0195169L22.6331 0.0127627L23.3713 0.00743412L24.2357 0.00353094L25.3278 0.00105294L27.107 0L30.9864 0.000372072L32.282 0.00216917L33.2354 0.00539139L34.0265 0.0100389L34.7175 0.0161119L35.3388 0.0236107L35.9078 0.0325357L36.4358 0.0428874L36.9304 0.0546662L37.3971 0.0678728L37.8401 0.0825078L38.2626 0.098572L38.6671 0.116066L39.0557 0.134991L39.4299 0.155348L39.7911 0.177138L40.1407 0.200362L40.4794 0.225021L40.8083 0.251116L41.128 0.27865L41.4392 0.307623L41.7425 0.338037L42.0383 0.369893L42.3271 0.403193L42.6093 0.43794L42.8853 0.474135L43.1554 0.511779L43.4199 0.550876L43.6791 0.591426L43.9331 0.633433L44.1823 0.6769L44.4268 0.721827L44.6669 0.768218L44.9026 0.816076L45.1342 0.865404L45.3617 0.916204L45.5854 0.96848L45.8054 1.02223L46.0218 1.07747L46.2346 1.13419L46.4441 1.1924L46.6502 1.2521L46.8532 1.3133L47.053 1.376L47.2497 1.44021L47.4435 1.50592L47.6344 1.57315L47.8225 1.6419L48.0078 1.71216L48.1903 1.78396L48.3703 1.85729L48.5476 1.93216L48.7224 2.00857L48.8946 2.08653L49.0645 2.16604L49.2319 2.24712L49.3969 2.32976L49.5596 2.41398L49.72 2.49978L49.8782 2.58717L50.0341 2.67616L50.1879 2.76675L50.3395 2.85895L50.489 2.95276L50.6363 3.04821L50.7816 3.1453L50.9248 3.24403L51.0661 3.34441L51.2053 3.44646L51.3425 3.55018L51.4778 3.6556L51.6111 3.7627L51.7426 3.87152L51.8721 3.98205L51.9998 4.09432L52.1256 4.20833L52.2495 4.3241L52.3717 4.44165L52.492 4.56098L52.6106 4.6821L52.7273 4.80505L52.8423 4.92983L52.9555 5.05645L53.067 5.18494L53.1768 5.31532L53.2849 5.4476L53.3912 5.5818L53.4959 5.71795L53.5989 5.85606L53.7002 5.99616L53.7998 6.13827L53.8978 6.28241L53.9942 6.42861L54.0889 6.57689L54.182 6.72729L54.2735 6.87984L54.3634 7.03455L54.4517 7.19147L54.5383 7.35063L54.6234 7.51206L54.707 7.6758L54.7889 7.84189L54.8693 8.01036L54.9481 8.18126L55.0254 8.35464L55.1011 8.53054L55.1753 8.70901L55.248 8.8901L55.3191 9.07387L55.3887 9.26038L55.4567 9.44968L55.5233 9.64185L55.5883 9.83694L55.6519 10.035L55.7139 10.2362L55.7745 10.4406L55.8335 10.6482L55.8911 10.8591L55.9471 11.0735L56.0017 11.2915L56.0548 11.5131L56.1064 11.7385L56.1566 11.9678L56.2052 12.2012L56.2525 12.4388L56.2982 12.6808L56.3425 12.9273L56.3853 13.1787L56.4267 13.4349L56.4666 13.6964L56.505 13.9634L56.542 14.236L56.5776 14.5148L56.6117 14.7999L56.6443 15.0917L56.6756 15.3908L56.7053 15.6975L56.7337 16.0124L56.7606 16.336L56.786 16.6692L56.8101 17.0126L56.8326 17.3672L56.8538 17.734L56.8735 18.1144L56.8918 18.5098L56.9087 18.9219L56.9241 19.3532L56.9381 19.8063L56.9507 20.2848L56.9618 20.7934L56.9715 21.3384L56.9798 21.9289L56.9867 22.5783L56.9921 23.3087L56.9962 24.1606L56.9988 25.2274L56.9999 26.8915L57 28.5Z" fill="#45DB55"/>
<path d="M39.4834 17.505C36.5693 14.6015 32.6938 13.0016 28.5647 13C20.057 13 13.1328 19.8906 13.1294 28.3603C13.1283 31.0676 13.8391 33.7104 15.1898 36.0398L13 44L21.1824 41.8639C23.4369 43.0876 25.9752 43.7326 28.5585 43.7337H28.5649C37.0717 43.7337 43.9966 36.8422 44 28.3725C44.0016 24.268 42.3976 20.4085 39.4834 17.505ZM28.5649 41.1393H28.5596C26.2576 41.1384 23.9997 40.5229 22.03 39.3596L21.5615 39.083L16.7059 40.3506L18.002 35.6391L17.6969 35.1561C16.4127 33.1233 15.7344 30.7736 15.7354 28.3613C15.7382 21.3217 21.4934 15.5944 28.5699 15.5944C31.9965 15.5957 35.2176 16.9256 37.6398 19.3388C40.062 21.7521 41.3951 24.96 41.3939 28.3715C41.3911 35.4117 35.636 41.1393 28.5649 41.1393ZM35.6019 31.577C35.2162 31.3849 33.3201 30.4563 32.9666 30.3282C32.6131 30.2001 32.356 30.136 32.0988 30.5204C31.8417 30.9046 31.1026 31.7691 30.8776 32.0253C30.6526 32.2815 30.4277 32.3135 30.042 32.1214C29.6563 31.9292 28.4136 31.5239 26.9405 30.2163C25.7941 29.1987 25.02 27.9416 24.795 27.5573C24.57 27.1731 24.7711 26.9654 24.9641 26.774C25.1376 26.602 25.3498 26.3257 25.5427 26.1016C25.7355 25.8775 25.7998 25.7173 25.9283 25.4612C26.0569 25.205 25.9926 24.9808 25.8962 24.7887C25.7998 24.5966 25.0284 22.7074 24.707 21.9389C24.394 21.1904 24.076 21.2917 23.8392 21.2799C23.6145 21.2688 23.3572 21.2665 23.1001 21.2665C22.843 21.2665 22.4252 21.3625 22.0717 21.7468C21.7182 22.131 20.7218 23.0596 20.7218 24.9488C20.7218 26.838 22.1038 28.6632 22.2966 28.9193C22.4895 29.1755 25.0161 33.0524 28.885 34.715C29.8052 35.1104 30.5235 35.3466 31.0837 35.5235C32.0076 35.8155 32.8483 35.7744 33.5129 35.6756C34.2539 35.5654 35.7947 34.7471 36.1161 33.8505C36.4375 32.9539 36.4375 32.1854 36.3411 32.0253C36.2447 31.8652 35.9876 31.7691 35.6019 31.577Z" fill="white"/>
</svg>
