<svg width="56" height="56" viewBox="0 0 56 56" fill="none" xmlns="http://www.w3.org/2000/svg">
<path d="M56 28C56 43.464 43.464 56 28 56C12.536 56 0 43.464 0 28C0 12.536 12.536 0 28 0C43.464 0 56 12.536 56 28Z" fill="#272525"/>
<path d="M53.0839 40.4559C48.4999 49.6692 38.9893 55.9999 28.0001 55.9999C17.2131 55.9999 7.85071 49.9 3.17432 40.9614C10.8449 37.1371 19.4959 34.986 28.6492 34.986C37.3912 34.986 45.6748 36.9481 53.0839 40.4559Z" fill="#FC537C"/>
<path d="M38.6665 22C38.6665 27.5229 34.1894 32 28.6665 32C23.1437 32 18.6665 27.5229 18.6665 22C18.6665 16.4772 23.1437 12 28.6665 12C34.1894 12 38.6665 16.4772 38.6665 22Z" fill="#FC537C"/>
</svg>
