<svg width="47" height="56" viewBox="0 0 47 56" fill="none" xmlns="http://www.w3.org/2000/svg">
<path d="M7.40041 34.4429C8.02638 33.1697 9.57714 32.6395 10.8641 33.2588L17.8551 36.6228C19.1421 37.242 19.6779 38.7763 19.0519 40.0495L11.9193 54.5576C10.9449 56.5395 8.06417 56.4618 7.20039 54.4304L6.95803 53.8604C6.45383 52.6746 5.13938 52.0421 3.88518 52.3817L3.28232 52.545C1.1337 53.127 -0.706609 50.933 0.267759 48.9511L7.40041 34.4429Z" fill="#FC537C"/>
<path d="M39.5996 34.4429C38.9736 33.1697 37.4229 32.6395 36.1359 33.2588L29.1449 36.6228C27.8579 37.242 27.3221 38.7763 27.948 40.0495L35.0807 54.5576C36.0551 56.5395 38.9358 56.4618 39.7996 54.4304L40.042 53.8604C40.5462 52.6746 41.8606 52.0421 43.1148 52.3817L43.7177 52.545C45.8663 53.127 47.7066 50.933 46.7322 48.9511L39.5996 34.4429Z" fill="#FC537C"/>
<path d="M45.9836 22.4918C45.9836 34.9137 35.9137 44.9836 23.4918 44.9836C11.0699 44.9836 1 34.9137 1 22.4918C1 10.0699 11.0699 0 23.4918 0C35.9137 0 45.9836 10.0699 45.9836 22.4918Z" fill="#272525"/>
<path fill-rule="evenodd" clip-rule="evenodd" d="M23.5 39C32.6127 39 40 31.6127 40 22.5C40 13.3873 32.6127 6 23.5 6C14.3873 6 7 13.3873 7 22.5C7 31.6127 14.3873 39 23.5 39ZM23.5 41C33.7173 41 42 32.7173 42 22.5C42 12.2827 33.7173 4 23.5 4C13.2827 4 5 12.2827 5 22.5C5 32.7173 13.2827 41 23.5 41Z" fill="#FC537C"/>
<path d="M21.2167 13.4477C22.1422 11.5174 24.8578 11.5174 25.7833 13.4477L27.0267 16.0412C27.4055 16.8311 28.1563 17.3706 29.0177 17.4717L31.751 17.7926C33.9288 18.0483 34.7837 20.7913 33.1453 22.2665L31.2839 23.9426C30.607 24.5521 30.3022 25.4807 30.484 26.3793L30.9956 28.9075C31.4267 31.0381 29.2127 32.7141 27.3167 31.6924L24.6924 30.2782C23.947 29.8765 23.053 29.8765 22.3076 30.2782L19.6833 31.6924C17.7873 32.7141 15.5733 31.0381 16.0044 28.9075L16.516 26.3793C16.6978 25.4807 16.393 24.5521 15.7161 23.9426L13.8547 22.2665C12.2163 20.7913 13.0712 18.0483 15.249 17.7926L17.9823 17.4717C18.8437 17.3706 19.5945 16.8311 19.9733 16.0412L21.2167 13.4477Z" fill="#FC537C"/>
</svg>
