<svg width="1103" height="792" viewBox="0 0 1103 792" fill="none" xmlns="http://www.w3.org/2000/svg">
<path d="M1326.4 1413.31L1386.18 1348.74L1230.03 1204.13L1085.42 1360.29L1241.57 1504.9L1326.4 1413.31ZM1761.81 2196L2010.81 1927.11L1542.34 1493.35L940.843 1516.48L507.083 1984.91L1287.83 2707.86L1761.81 2196ZM1504.84 2160.26L1276.25 2407.13L1120.09 2262.52L1264.7 2106.36L1108.54 1961.79L963.933 2117.94L807.777 1973.33L1241.54 1504.9L1397.69 1649.51L1253.08 1805.67L1409.24 1950.24L1553.85 1794.08L1710.01 1938.69L1504.84 2160.26ZM1348.02 1397.57L1412.11 1332.97L1255.91 1177.99L1100.9 1334.22L1257.09 1489.2L1348.02 1397.57ZM1770.01 2221.96L2036.91 1953L1568.3 1488.02L945.88 1490.45L480.904 1959.03L1261.94 2734L1770.01 2221.96ZM1505.79 2175.85L1260.77 2422.79L1104.57 2267.81L1259.55 2111.62L1103.36 1956.64L948.38 2112.83L792.187 1957.85L1257.16 1489.24L1413.36 1644.21L1258.38 1800.41L1414.57 1955.39L1569.55 1799.19L1725.74 1954.17L1505.79 2175.85ZM785.789 1219.43L742.292 1281.79L893.117 1386.95L998.275 1236.12L847.45 1130.96L785.789 1219.43ZM320.152 601.42L139.066 861.117L591.504 1176.63L1103.47 1085.33L1418.98 632.894L664.894 107.029L320.152 601.42ZM544.256 601.457L710.524 363.013L861.349 468.171L756.191 618.996L907.015 724.154L1012.17 573.329L1163 678.487L847.487 1130.93L696.662 1025.77L801.82 874.942L650.996 769.784L545.837 920.609L395.012 815.45L544.256 601.457ZM769.133 1238L721.738 1301.2L874.622 1415.85L989.267 1262.96L836.383 1148.32L769.133 1238ZM307.577 579.322L110.129 842.586L568.818 1186.56L1103.91 1110.08L1447.84 651.426L683.426 78.166L307.577 579.322ZM540.396 587.411L721.665 345.694L874.549 460.339L759.904 613.223L912.788 727.867L1027.43 574.984L1180.32 689.628L836.346 1148.32L683.462 1033.67L798.107 880.788L645.223 766.144L530.578 919.028L377.694 804.383L540.396 587.411ZM751.153 1255.94L699.714 1319.81L854.216 1444.19L978.604 1289.69L824.139 1165.3L751.153 1255.94ZM296.031 556.195L81.8174 822.216L545.249 1195.42L1103.03 1135.26L1476.23 671.832L703.832 49.8174L296.031 556.195ZM537.233 572.925L733.909 328.707L888.374 453.096L763.986 607.561L918.451 731.949L1042.84 577.484L1197.3 701.872L824.102 1165.3L669.637 1040.92L794.026 886.451L639.561 762.062L515.172 916.527L360.707 792.139L537.233 572.925ZM731.96 1273.18L676.403 1337.53L831.971 1471.92L966.36 1316.35L810.792 1181.96L731.96 1273.18ZM285.516 532.075L54.0939 799.971L520.835 1203.1L1100.75 1160.74L1503.92 694.04L726.04 22.0939L285.516 532.075ZM534.77 557.997L747.219 312.051L902.787 446.441L768.398 602.009L923.966 736.398L1058.35 580.83L1213.92 715.219L810.792 1181.92L655.224 1047.53L789.613 891.966L634.045 757.576L499.656 913.145L344.088 778.755L534.77 557.997ZM711.553 1289.73L651.768 1354.29L807.924 1498.91L952.535 1342.75L796.379 1198.14L711.553 1289.73ZM276.14 506.998L27.1425 775.887L495.611 1209.68L1097.11 1186.56L1530.87 718.124L750.124 -4.85751L276.14 506.998ZM533.079 542.737L761.669 295.873L917.825 440.484L773.214 596.64L929.371 741.215L1073.98 585.058L1230.14 729.669L796.379 1198.1L640.222 1053.49L784.833 897.334L628.677 752.76L484.066 908.916L327.91 764.305L533.079 542.737ZM689.934 1305.43L625.846 1370.03L782.039 1525.01L937.055 1368.78L780.862 1213.8L689.934 1305.43ZM267.903 481.04L1 750.002L469.616 1215.01L1092.04 1212.59L1557.01 743.972L775.972 -31L267.903 481.04ZM532.159 527.148L777.185 280.21L933.379 435.189L778.399 591.382L934.592 746.362L1089.57 590.169L1245.76 745.149L780.826 1213.8L624.633 1058.82L779.612 902.629L623.419 747.649L468.439 903.842L312.246 748.862L532.159 527.148Z" stroke="#605652" stroke-width="0.4799" stroke-miterlimit="22.9256"/>
</svg>
